<?xml version="1.0" standalone="no"?>
<!DOCTYPE svg PUBLIC "-//W3C//DTD SVG 20010904//EN"
 "http://www.w3.org/TR/2001/REC-SVG-20010904/DTD/svg10.dtd">
<svg version="1.0" xmlns="http://www.w3.org/2000/svg"
 width="1280.000000pt" height="1280.000000pt" viewBox="0 0 1280.000000 1280.000000"
 preserveAspectRatio="xMidYMid meet">
<metadata>
Created by potrace 1.14, written by Peter Selinger 2001-2017
</metadata>
<g transform="translate(0.000000,1280.000000) scale(0.100000,-0.100000)"
fill="#000000" stroke="none">
<path d="M5178 11195 c-2 -2 -21 -6 -42 -9 -84 -13 -217 -72 -291 -129 -60
-46 -156 -143 -148 -150 3 -4 2 -7 -4 -7 -9 0 -122 -150 -158 -208 -5 -9 -16
-22 -23 -30 -13 -15 -151 -203 -167 -230 -5 -9 -18 -25 -28 -36 -10 -12 -28
-37 -40 -56 -12 -19 -27 -42 -34 -50 -42 -51 -193 -262 -193 -269 0 -5 -4 -11
-8 -13 -5 -1 -28 -30 -52 -63 -24 -33 -47 -61 -52 -63 -4 -2 -8 -9 -8 -16 0
-7 -8 -21 -18 -32 -10 -10 -52 -67 -94 -125 -42 -58 -115 -160 -163 -225 -47
-65 -93 -128 -101 -139 -22 -32 -152 -209 -161 -220 -4 -6 -24 -33 -42 -60
-19 -28 -38 -52 -41 -55 -3 -3 -31 -41 -63 -85 -48 -69 -195 -272 -249 -346
-10 -13 -42 -58 -73 -99 -30 -41 -61 -84 -69 -95 -8 -11 -85 -117 -171 -235
-86 -118 -163 -224 -171 -235 -8 -11 -37 -51 -65 -90 -28 -38 -59 -81 -69 -95
-10 -14 -82 -113 -160 -220 -77 -107 -146 -202 -153 -210 -7 -9 -28 -38 -47
-65 -19 -27 -40 -56 -47 -65 -7 -8 -58 -78 -113 -155 -56 -77 -110 -151 -120
-165 -10 -14 -94 -128 -185 -254 -242 -335 -285 -434 -290 -681 -6 -221 37
-375 149 -543 117 -174 260 -279 449 -328 4 -1 8 -2 10 -4 22 -17 467 -34 467
-17 0 5 5 5 10 2 16 -10 470 -11 470 -2 0 5 5 5 10 2 16 -10 470 -11 470 -2 0
5 5 5 10 2 16 -10 470 -11 470 -2 0 5 5 5 10 2 16 -10 470 -11 470 -2 0 5 5 5
10 2 16 -10 470 -11 470 -2 0 5 5 5 10 2 16 -10 420 -11 420 -2 0 5 5 5 12 1
18 -11 228 -1 251 13 4 2 20 6 35 9 15 3 34 7 42 11 8 3 18 7 22 7 3 1 10 4
14 9 4 4 15 7 25 7 9 0 19 3 21 8 2 4 24 18 51 32 26 13 47 28 47 32 0 5 7 8
15 8 28 0 178 163 228 247 26 44 47 86 47 92 0 6 4 11 10 11 5 0 9 3 8 8 -1 4
8 39 20 77 21 67 27 95 38 160 9 51 10 4657 2 4698 -5 21 -11 56 -13 79 -3 22
-10 48 -15 58 -6 10 -10 26 -10 35 0 17 -87 205 -99 215 -3 3 -19 23 -36 45
-46 63 -134 145 -205 190 -64 42 -179 93 -228 101 -14 3 -30 8 -35 11 -10 6
-233 13 -239 8z"/>
<path d="M7607 8454 c-1 -1 -31 -4 -67 -7 -36 -3 -78 -11 -95 -17 -16 -6 -30
-10 -30 -9 0 5 -81 -24 -110 -39 -16 -9 -37 -17 -45 -18 -8 -2 -16 -8 -18 -13
-2 -6 -8 -11 -14 -11 -39 0 -220 -169 -289 -270 -45 -67 -111 -196 -124 -242
-2 -5 -3 -9 -5 -10 -2 -4 -4 -11 -29 -111 -47 -186 -44 -380 9 -557 7 -25 14
-49 16 -55 6 -24 55 -136 73 -167 11 -18 28 -47 36 -65 9 -18 23 -37 31 -44 8
-6 14 -15 14 -19 0 -4 47 -83 105 -175 58 -92 105 -168 105 -170 0 -2 13 -23
28 -47 16 -24 44 -68 64 -98 19 -30 54 -86 79 -124 60 -95 67 -107 81 -138 7
-16 16 -28 20 -28 5 0 13 -10 19 -22 13 -29 6 -18 184 -303 82 -132 153 -241
157 -243 5 -2 8 -8 8 -14 0 -5 12 -28 28 -51 15 -23 32 -51 39 -62 22 -38 186
-301 229 -367 24 -37 44 -72 44 -78 0 -5 3 -10 8 -10 4 0 12 -9 17 -20 18 -35
99 -165 112 -178 7 -7 13 -20 13 -28 0 -8 4 -14 9 -14 5 0 13 -10 17 -22 4
-13 10 -25 13 -28 6 -4 90 -136 116 -182 16 -29 134 -217 180 -288 24 -36 50
-78 59 -95 21 -39 40 -69 46 -75 3 -3 28 -41 54 -85 27 -44 59 -96 71 -115 12
-19 69 -109 125 -200 119 -192 131 -211 193 -307 26 -40 47 -75 47 -77 0 -2
31 -53 69 -113 69 -107 147 -232 186 -298 34 -57 415 -665 472 -752 61 -94
175 -212 257 -267 139 -92 273 -133 437 -134 237 -1 429 79 604 253 175 173
264 363 292 620 9 81 8 5022 0 5109 -25 246 -134 473 -312 649 -54 53 -212
156 -242 158 -5 0 -18 7 -30 15 -13 8 -23 12 -23 9 0 -3 -14 2 -31 10 -17 9
-33 14 -36 11 -3 -3 -13 -1 -22 4 -9 4 -37 12 -61 16 -35 5 -3176 13 -3183 8z"/>
<path d="M4597 4334 c-1 -1 -27 -4 -57 -7 -148 -15 -304 -60 -445 -128 -85
-41 -178 -96 -207 -123 -10 -9 -20 -16 -23 -16 -7 0 -14 -5 -104 -88 -41 -37
-102 -103 -137 -147 -35 -44 -68 -85 -74 -92 -9 -11 -100 -173 -100 -178 0 -1
-10 -24 -22 -51 -11 -27 -20 -50 -19 -52 1 -1 -6 -16 -14 -32 -9 -17 -13 -30
-10 -30 3 0 1 -9 -5 -20 -16 -30 -48 -183 -56 -270 -10 -102 -8 -218 6 -320 7
-47 13 -93 13 -102 1 -10 4 -18 7 -18 3 0 6 -8 7 -17 5 -77 99 -303 172 -413
23 -34 41 -64 41 -66 0 -3 6 -11 13 -19 6 -7 28 -32 47 -56 59 -73 126 -138
230 -222 89 -73 339 -201 434 -222 12 -2 39 -9 61 -15 63 -17 107 -24 153 -24
23 -1 42 -4 42 -9 0 -8 305 -2 360 7 173 31 349 96 495 183 59 36 181 131 240
189 92 90 198 224 233 294 6 14 16 32 22 40 9 13 72 147 75 160 1 3 13 43 28
91 15 47 27 94 27 105 0 12 3 24 7 28 4 4 8 17 9 29 1 12 5 49 9 82 10 73 9
241 0 315 -4 30 -8 69 -10 85 -3 17 -11 55 -20 85 -9 30 -17 62 -20 70 -43
177 -207 449 -349 580 -91 84 -112 102 -147 125 -20 13 -42 29 -50 37 -13 12
-58 38 -134 77 -16 9 -33 21 -37 26 -4 6 -8 6 -8 2 0 -5 -12 -2 -27 6 -16 8
-41 20 -58 27 -16 7 -38 16 -47 21 -10 5 -26 9 -36 9 -10 0 -22 3 -26 7 -3 4
-12 8 -19 9 -19 4 -60 13 -92 21 -71 16 -150 24 -273 27 -56 1 -103 1 -105 0z"/>
</g>
</svg>
