<?xml version="1.0" encoding="UTF-8"?><svg id="Layer_2" xmlns="http://www.w3.org/2000/svg" viewBox="0 0 251.81 479.26"><defs><style>.cls-1{fill:#9f68e8;}.cls-2{fill:#c26655;}.cls-3{fill:#c9c21e;}.cls-4{fill:#d94550;}.cls-5{fill:#53822b;}.cls-6{fill:#51b1c9;}</style></defs><g id="Layer_1-2"><g><path class="cls-2" d="M153.14,7.87l-24.1,110.3c-1.93,8.84,7.93,15.49,15.4,10.4l84.35-57.47c5.4-3.68,5.88-11.47,.96-15.78L169.5,2.49c-5.73-5.02-14.74-2.06-16.36,5.38Z"/><path class="cls-1" d="M179.74,113.07l-35.16,23.25c-5.76,3.81-6.02,12.17-.51,16.33l20,15.08c5.28,3.98,12.89,1.84,15.32-4.31l15.16-38.33c3.6-9.1-6.66-17.41-14.81-12.02Z"/><circle class="cls-4" cx="25.75" cy="453.5" r="25.75"/><path class="cls-3" d="M67.97,117.27l-9.19,87.21c-1.2,4.41,1.53,8.92,6,9.93l177.16,41.6c8.42,1.9,13.54-8.95,6.69-14.2L80.66,113.01c-4.55-3.49-11.19-1.25-12.69,4.27Z"/><path class="cls-6" d="M67.7,255.28l172.97,14.2c8.24,.68,10.21,11.86,2.69,15.3l-172.97,79.39c-5.32,2.44-11.38-1.45-11.38-7.3v-93.59c0-4.7,4.01-8.39,8.69-8Z"/><path class="cls-3" d="M89.74,234.96l-1.91,8.01c-.81,3.4,1.58,6.73,5.06,7.05l120.03,11.09c3.44,.32,4.2-4.71,.82-5.42l-117.37-24.92c-2.98-.63-5.92,1.23-6.63,4.19Z"/><path class="cls-5" d="M84,366.38l-51.36,40.65c-6.62,5.24-4.17,15.81,4.07,17.61l12.75,2.79c4.32,.94,8.75-1.06,10.89-4.94l28.64-51.88c1.76-3.19-2.13-6.48-4.99-4.22Z"/></g></g></svg>