<?xml version="1.0" encoding="UTF-8"?><svg id="Layer_2" xmlns="http://www.w3.org/2000/svg" viewBox="0 0 402.28 437.42"><defs><style>.cls-1{fill:#c9c21e;}.cls-2{fill:#d94550;}.cls-3{fill:#d6a671;}.cls-4{fill:#53822b;}.cls-5{fill:#76b2b4;}</style></defs><g id="Layer_1-2"><g><path class="cls-5" d="M227.03,141.52l-34.22-50.52c-3.58-5.29-11.13-5.91-15.53-1.28l-54.89,57.76c-3.77,6.9,1.53,15.25,9.38,14.78l87.48-5.3c7.65-.46,11.96-9.01,7.78-15.43Z"/><path class="cls-3" d="M112.17,.39L7.27,30.23c-7.01,1.99-9.6,10.57-4.87,16.11l83.73,98.17c5.52,6.47,16.09,3.53,17.47-4.86L124.78,11.64c1.2-7.24-5.55-13.26-12.6-11.25Z"/><path class="cls-4" d="M262.2,176.09l-155.61,6.22c-8.48,.34-12.71,10.42-7.01,16.71l189.84,209.55c6.68,7.37,18.85,1.54,17.29-8.28l-34.23-215.77c-.79-5.01-5.21-8.63-10.28-8.43Z"/><path class="cls-1" d="M317.38,369.92l7.04,58.69c.65,5.44,5.56,9.34,11,8.75l57.91-6.26c8.85-.96,12.13-12.13,5.21-17.72l-64.95-52.43c-6.98-5.64-17.28,.06-16.21,8.97Z"/><circle class="cls-2" cx="53.01" cy="168.34" r="26.16"/></g></g></svg>