<?xml version="1.0" encoding="UTF-8"?><svg id="Layer_2" xmlns="http://www.w3.org/2000/svg" viewBox="0 0 384.31 342.47"><defs><style>.cls-1{fill:#c26655;}.cls-2{fill:#c9c21e;}.cls-3{fill:#d94550;}.cls-4{fill:#51b1c9;}</style></defs><g id="Layer_1-2"><g><path class="cls-3" d="M176.32,20.8c-51.42-1.64-93.44,40.37-91.8,91.79,1.48,46.56,39.4,84.49,85.97,85.98,51.42,1.65,93.45-40.38,91.81-91.79-1.49-46.56-39.41-84.49-85.97-85.98Z"/><path class="cls-4" d="M55.46,8.16l35.63,190.67c1.27,6.81-4.59,12.82-11.43,11.71l-71.26-11.56c-5.59-.91-9.31-6.27-8.21-11.82L35.82,8.05c2.15-10.8,17.62-10.71,19.64,.11Z"/><path class="cls-1" d="M78.45,230.74l112.37-23.37c6.84-1.42,10.44,7.79,4.45,11.39l-95.18,57.11c-4.89,2.93-11.23,1.19-13.94-3.82l-14.46-26.75c-3.18-5.89,.21-13.18,6.76-14.55Z"/><path class="cls-1" d="M165.49,251.71l-50.71,30.94c-6.53,3.99-6.35,13.54,.33,17.27l73.91,41.25c7.93,4.42,17.17-3.15,14.39-11.79l-23.2-72.19c-1.98-6.16-9.2-8.85-14.73-5.48Z"/><path class="cls-2" d="M264.01,38.99l11.13,149.71c.67,9.07,12.12,12.6,17.79,5.5l88-110.26c4.19-5.25,2.12-13.05-4.12-15.53l-99.13-39.45c-6.86-2.73-14.22,2.67-13.67,10.03Z"/><path class="cls-2" d="M355.36,50.32l23.49,9.14c3.16,1.23,6.32-1.78,5.24-4.99l-5.87-17.62c-.76-2.29-3.36-3.38-5.53-2.34l-17.62,8.48c-3.15,1.52-2.97,6.06,.29,7.33Z"/></g></g></svg>