<?xml version="1.0" encoding="UTF-8"?><svg id="Layer_2" xmlns="http://www.w3.org/2000/svg" viewBox="0 0 319.63 485.09"><defs><style>.cls-1{fill:#e8a21c;}.cls-2{fill:#9f68e8;}.cls-3{fill:#8fb505;}.cls-4{fill:#c26655;}.cls-5{fill:#d94550;}.cls-6{fill:#53822b;}.cls-7{fill:#51b1c9;}</style></defs><g id="Layer_1-2"><g><circle class="cls-5" cx="228.82" cy="248.49" r="90.81"/><path class="cls-1" d="M176.06,450.17l4.83,12.09c1.95,4.88-.2,10.43-4.93,12.72l-18.73,9.06c-9.14,4.42-18.29-6.01-12.71-14.49l13.9-21.15c4.44-6.75,14.64-5.73,17.64,1.78Z"/><path class="cls-7" d="M133.59,474.72l62.09-87.06c2.21-3.1-1.92-6.76-4.73-4.18l-76.75,70.41c-3.47,3.19-4.25,8.36-1.87,12.43l4.49,7.65c3.67,6.25,12.56,6.65,16.77,.75Z"/><path class="cls-3" d="M204.14,54.34l-7.31,5.05c-6.13,4.24-5.63,13.46,.92,17.01l7.31,3.96c6.66,3.61,14.77-1.21,14.77-8.79v-9.01c0-8.07-9.06-12.81-15.69-8.22Z"/><path class="cls-3" d="M49.87,1.32L159.45,0c9.37-.11,13.74,11.57,6.58,17.63L87.84,83.83c-4.99,4.22-12.62,2.61-15.46-3.28L40.99,15.67c-3.19-6.59,1.56-14.27,8.88-14.35Z"/><path class="cls-6" d="M166.44,31.9L80.89,99.9c-6.65,5.29-4.09,15.94,4.24,17.63l91.13,18.44c6.45,1.31,12.39-3.87,11.96-10.45l-5.58-86.44c-.52-8.06-9.88-12.21-16.2-7.18Z"/><path class="cls-2" d="M62.34,154.85l61.61,127.28c3.24,6.69-1.7,14.45-9.13,14.36l-104.94-1.35c-6.81-.09-11.54-6.81-9.33-13.25l43.33-125.93c2.9-8.44,14.57-9.14,18.46-1.1Z"/><path class="cls-4" d="M81.08,130.21l91.23,12.16c8.45,1.13,11.71,11.64,5.37,17.35l-60.82,54.74c-5.02,4.52-13,2.86-15.79-3.29l-30.41-66.91c-3.25-7.15,2.64-15.09,10.43-14.05Z"/></g></g></svg>