<?xml version="1.0" encoding="UTF-8"?><svg id="Layer_2" xmlns="http://www.w3.org/2000/svg" viewBox="0 0 387.94 483.28"><defs><style>.cls-1{fill:#8fb505;}.cls-2{fill:#c26655;}.cls-3{fill:#d94550;}.cls-4{fill:#395298;}</style></defs><g id="Layer_1-2"><g><path class="cls-1" d="M284.1,151.75L3.88,13.6C-3.56,9.68,.6-1.63,8.8,.2L380.09,83.14c9.8,2.01,10.66,15.66,1.2,18.9l-88.2,51.1c-3.05,1.04-6.41,.52-9-1.39Z"/><path class="cls-2" d="M22.15,135.62l53.72-62.06c3.08-3.55,8.21-4.49,12.34-2.24l191.7,90.13c7.65,6.04,2.77,18.33-6.94,17.47L31.1,145.39c-5.07-.44-8.95-4.69-8.95-9.77Z"/><path class="cls-4" d="M176.44,400.18l-71.5-44.56c-6.53-4.22-15.14,.46-15.14,8.24l4.73,112.31c2.04,7.14,10.97,9.51,16.28,4.33l65.08-63.51c6.45-3.61,6.75-12.78,.54-16.8Z"/><circle class="cls-3" cx="189.45" cy="278.38" r="102.86"/><path class="cls-1" d="M319.16,59.32l-126.88-24.62c-6.6-1.28-5.82-10.95,.89-11.17l82.01-2.62c1.93-.06,3.84,.45,5.49,1.47l42.6,26.44c5.41,3.36,2.13,11.7-4.11,10.49Z"/></g></g></svg>