<?xml version="1.0" encoding="UTF-8"?><svg id="Layer_2" xmlns="http://www.w3.org/2000/svg" viewBox="0 0 370.51 453.69"><defs><style>.cls-1{fill:#e8a21c;}.cls-2{fill:#8fb505;}.cls-3{fill:#d94550;}</style></defs><g id="Layer_1-2"><g><circle class="cls-3" cx="247.21" cy="346.08" r="107.62"/><path class="cls-1" d="M21.8,45.12L233.7,.22c7.81-1.66,14.08,6.44,10.53,13.59l-62.23,125.25c-2.4,4.83-8.32,6.71-13.07,4.16L19.27,62.87c-7.84-4.21-6.17-15.91,2.54-17.75Z"/><path class="cls-1" d="M39.55,102.74L.45,227.86c-2.23,7.15,4.26,13.97,11.51,12.09l180.66-46.92c8.35-2.17,9.77-13.43,2.22-17.6L53.28,97.23c-5.29-2.92-11.93-.26-13.73,5.51Z"/><path class="cls-2" d="M41.67,247.65l146.09-38.82c9.25-2.46,15.96,8.7,9.46,15.72l-79.75,86.1c-3.26,3.52-8.64,4.07-12.55,1.29l-66.34-47.28c-6.58-4.69-4.72-14.93,3.09-17Z"/><path class="cls-1" d="M337.86,209.74l26.62-15.53c3.35-1.96,7.25,1.53,5.67,5.08l-8.87,19.97c-.79,1.78-2.74,2.73-4.63,2.26l-17.75-4.44c-3.48-.87-4.14-5.53-1.05-7.34Z"/></g></g></svg>