<?xml version="1.0" encoding="UTF-8"?><svg id="Layer_2" xmlns="http://www.w3.org/2000/svg" viewBox="0 0 412.68 233.93"><defs><style>.cls-1{fill:#9f68e8;}.cls-2{fill:#8fb505;}.cls-3{fill:#c26655;}.cls-4{fill:#d94550;}</style></defs><g id="Layer_1-2"><g><path class="cls-3" d="M159.55,7.25l-45.02,157.29c-1.77,6.17,2.65,12.38,9.06,12.74l278.51,15.39c9.91,.55,14.48-12.12,6.5-18.02L175.11,1.97c-5.61-4.15-13.64-1.42-15.56,5.29Z"/><circle class="cls-4" cx="55.37" cy="136.78" r="55.37"/><path class="cls-2" d="M241.06,32.99l134.45,97.42c8.15,5.91,18.94-2.57,15.12-11.89L345.17,7.46c-1.75-4.28-6.2-6.8-10.77-6.1l-88.98,13.64c-8.84,1.35-11.59,12.74-4.35,17.98Z"/><path class="cls-1" d="M224.76,194.47l128.93,8.12c8.18,.51,9.54,11.99,1.7,14.4l-53.6,16.49c-2.03,.62-4.21,.59-6.21-.11l-73.51-25.46c-7.61-2.64-5.34-13.95,2.7-13.44Z"/></g></g></svg>