<?xml version="1.0" encoding="UTF-8"?><svg id="Layer_2" xmlns="http://www.w3.org/2000/svg" viewBox="0 0 404.6 363.3"><defs><style>.cls-1{fill:#e8a21c;}.cls-2{fill:#c26655;}.cls-3{fill:#c9c21e;}.cls-4{fill:#d94550;}.cls-5{fill:#d6a671;}.cls-6{fill:#53822b;}</style></defs><g id="Layer_1-2"><g><path class="cls-3" d="M340.88,171.95l-191.52,157.85c-6.99,5.76-3.33,17.1,5.7,17.7l238.87,15.78c6.85,.45,12.11-5.98,10.31-12.61l-47.35-173.63c-1.91-7-10.41-9.7-16.01-5.09Z"/><path class="cls-4" d="M79.54,54.85C35.26,54.02-.8,90.08,.01,134.36c.77,41.73,34.82,75.79,76.55,76.57,44.29,.83,80.35-35.24,79.53-79.52-.77-41.73-34.83-75.79-76.56-76.56Z"/><path class="cls-2" d="M156.75,43.67l15.43,120.53c.81,6.35,7.29,10.31,13.31,8.14l117.63-42.43c7.97-2.88,8.98-13.74,1.67-18.03L171.73,33.78c-7.16-4.21-16.04,1.65-14.98,9.89Z"/><path class="cls-5" d="M224.45,32.09L278.52,1.31c5.46-3.11,12.39-.47,14.41,5.47l26.62,78.19c2.99,8.78-6.54,16.54-14.53,11.84l-80.69-47.42c-6.63-3.9-6.56-13.51,.12-17.31Z"/><path class="cls-1" d="M122.83,206.75l158.67-47c9.96-2.95,17.26,9.36,9.89,16.68l-129.53,128.76c-5.2,5.17-14.01,3.17-16.47-3.74l-29.13-81.76c-1.93-5.4,1.08-11.32,6.58-12.94Z"/><path class="cls-6" d="M19.57,210.01l-14.37,12.83c-5.37,4.79-4.07,13.52,2.47,16.54l33.36,15.4c9.18,4.24,18.13-6.27,12.49-14.66l-18.99-28.22c-3.39-5.03-10.43-5.92-14.96-1.88Z"/></g></g></svg>