<?xml version="1.0" encoding="UTF-8"?><svg id="Layer_2" xmlns="http://www.w3.org/2000/svg" viewBox="0 0 298.3 466.24"><defs><style>.cls-1{fill:#9f68e8;}.cls-2{fill:#c26655;}.cls-3{fill:#d94550;}.cls-4{fill:#53822b;}.cls-5{fill:#51b1c9;}</style></defs><g id="Layer_1-2"><g><path class="cls-4" d="M129.09,2.52l165.78,144.84c6.09,5.32,3.67,15.31-4.19,17.24l-113.43,27.92c-5.16,1.27-10.42-1.72-11.96-6.81L112.94,12.95c-2.91-9.62,8.58-17.04,16.15-10.43Z"/><circle class="cls-3" cx="203.95" cy="346.6" r="72.53"/><path class="cls-5" d="M121.61,367.74l29.94,50.73c3.42,5.79,.26,13.24-6.28,14.81L8.82,466.02c-7.29,1.75-11.99-7.49-6.28-12.35l103.97-88.47c4.73-4.02,11.94-2.81,15.09,2.53Z"/><path class="cls-1" d="M167.01,265.84h64.33c10.09,0,13.83-13.25,5.23-18.52l-60.87-37.35c-6.32-3.88-14.5,.22-15.19,7.6l-3.46,37.35c-.54,5.86,4.07,10.92,9.96,10.92Z"/><path class="cls-2" d="M206.7,214.22l47.29,27.12c5.78,3.32,13.13,.15,14.7-6.33l9.74-40.34c1.75-7.23-4.73-13.77-11.98-12.09l-57.03,13.21c-8.85,2.05-10.6,13.89-2.72,18.42Z"/></g></g></svg>