<?xml version="1.0" encoding="UTF-8"?><svg id="Layer_2" xmlns="http://www.w3.org/2000/svg" viewBox="0 0 295.72 464.59"><defs><style>.cls-1{fill:#ed9489;}.cls-2{fill:#8fb505;}.cls-3{fill:#c26655;}.cls-4{fill:#d94550;}.cls-5{fill:#53822b;}</style></defs><g id="Layer_1-2"><g><circle class="cls-4" cx="262.63" cy="141.35" r="33.09"/><path class="cls-3" d="M72.95,9.47l-13.04,238.35c-.35,6.48,7.5,9.94,12.05,5.31L221.54,100.76c4.45-4.54,3.6-12.02-1.76-15.44L88.31,1.58c-6.45-4.11-14.94,.25-15.36,7.89Z"/><path class="cls-2" d="M175.66,25.61l42.93-8.23c5.98-1.15,11.59,3.28,11.87,9.36l1.76,38.23c.38,8.2-8.74,13.34-15.56,8.76l-44.7-29.99c-7.42-4.98-5.08-16.44,3.69-18.12Z"/><path class="cls-2" d="M59.67,300.71L2.97,356.69c-2.88,2.85-3.76,7.15-2.23,10.91l30.86,75.36c3.76,9.18,17.15,7.87,19.07-1.86l25.84-131.34c1.9-9.66-9.83-15.96-16.84-9.05Z"/><path class="cls-2" d="M136.86,464.52l-48.79-5.49c-9.75-1.1-12.25-14.11-3.61-18.75l109.18-58.55c9.99-5.36,19.78,7.42,12,15.67l-60.38,64.04c-2.16,2.29-5.27,3.43-8.39,3.08Z"/><path class="cls-1" d="M97.55,255.45l130.07-61.21c5.16-2.43,7.25-8.68,4.58-13.72l-18.75-35.5c-3.14-5.95-11.15-7.16-15.91-2.4l-105.29,105.29c-3.71,3.71,.56,9.77,5.3,7.54Z"/><path class="cls-5" d="M246.74,230.3v104.36c0,3.73-2.08,7.15-5.39,8.87l-158.81,82.58c-5.34,2.78-10.68-3.7-6.95-8.42L228.9,224.09c5.88-7.43,17.84-3.27,17.84,6.21Z"/><path class="cls-5" d="M193.08,246.86l-106.02,132.52c-3.67,4.59-11.05,1.29-10.07-4.51l16.84-99.36c.56-3.29,2.72-6.09,5.77-7.45l81.58-36.57c9.57-4.29,18.45,7.18,11.9,15.37Z"/></g></g></svg>