<?xml version="1.0" encoding="UTF-8"?><svg id="Layer_2" xmlns="http://www.w3.org/2000/svg" viewBox="0 0 390.21 491.47"><defs><style>.cls-1{fill:#d94550;}.cls-2{fill:#53822b;}.cls-3{fill:#76b2b4;}.cls-4{fill:#51b1c9;}</style></defs><g id="Layer_1-2"><g><path class="cls-2" d="M90.21,10.01V210.65c0,8.13,9.19,12.86,15.81,8.14L306.67,75.47c6.81-4.87,4.99-15.45-3.07-17.75L102.96,.39c-6.39-1.83-12.75,2.97-12.75,9.62Z"/><path class="cls-3" d="M372.69,16.78L193.34,250.78c-6.12,7.99,2.06,19,11.48,15.44l178.14-67.39c4.29-1.23,7.25-5.15,7.25-9.62V23.36c0-9.23-11.45-13.53-17.53-6.59Z"/><path class="cls-4" d="M144.78,210.69l99.04-75.07c9.32-7.06,21.11,4.87,13.94,14.1l-78.86,101.57c-4.03,5.19-11.87,5.15-15.85-.07l-20.19-26.5c-3.35-4.4-2.5-10.69,1.91-14.03Z"/><path class="cls-2" d="M202.22,275.6L5.04,388.28c-6.64,3.79-6.74,13.33-.18,17.26l140.85,84.51c5.64,3.38,12.95,.5,14.76-5.83l56.34-197.18c2.46-8.62-6.79-15.88-14.58-11.43Z"/><circle class="cls-1" cx="115.13" cy="271.83" r="41.75"/></g></g></svg>