<?xml version="1.0" encoding="UTF-8"?><svg id="Layer_2" xmlns="http://www.w3.org/2000/svg" viewBox="0 0 334.64 467.47"><defs><style>.cls-1{fill:#c26655;}.cls-2{fill:#c9c21e;}.cls-3{fill:#d94550;}.cls-4{fill:#53822b;}.cls-5{fill:#51b1c9;}</style></defs><g id="Layer_1-2"><g><path class="cls-3" d="M201.8,.18c-53.56-3.39-97.71,40.76-94.34,94.32,2.79,44.17,38.62,80.01,82.79,82.81,53.56,3.39,97.72-40.77,94.34-94.33C281.81,38.82,245.97,2.98,201.8,.18Z"/><path class="cls-4" d="M274.09,25.67l16.65,35.23c3.44,7.27,13.62,7.72,17.68,.77l24.84-42.55c4.29-7.36-1.99-16.37-10.37-14.89l-41.49,7.32c-6.5,1.15-10.12,8.16-7.3,14.12Z"/><path class="cls-2" d="M106.64,221.26L8.37,237.64c-7.83,1.3-11.09,10.77-5.73,16.62l114.65,124.99c6.55,7.14,18.42,1.72,17.3-7.91l-16.38-141.37c-.66-5.68-5.94-9.65-11.58-8.71Z"/><path class="cls-5" d="M174.66,465.36l-24.97-19.35c-3.96-3.07-5.04-8.59-2.53-12.92l57.05-98.46c3.61-6.22,13.15-2.56,11.67,4.47l-25.31,120.41c-1.52,7.23-10.08,10.37-15.91,5.85Z"/><path class="cls-2" d="M137.72,186.14h107.13c6.7,0,11.51,6.47,9.57,12.89l-24.68,81.89c-2.18,7.23-11.27,9.53-16.62,4.21l-82.45-81.89c-6.33-6.29-1.88-17.1,7.05-17.1Z"/><path class="cls-1" d="M141.81,232.78l59.6,64.89c2.99,3.26,3.49,8.1,1.22,11.9l-36.6,61.17c-4.89,8.16-17.33,5.54-18.51-3.9l-16.03-129.29c-.71-5.76,6.39-9.05,10.32-4.77Z"/></g></g></svg>