<?xml version="1.0" encoding="UTF-8"?><svg id="Layer_2" xmlns="http://www.w3.org/2000/svg" viewBox="0 0 398.14 352.46"><defs><style>.cls-1{fill:#ed9489;}.cls-2{fill:#d94550;}.cls-3{fill:#d6a671;}.cls-4{fill:#6dce97;}.cls-5{fill:#51b1c9;}</style></defs><g id="Layer_1-2"><g><path class="cls-4" d="M164.89,138.99l143.69,161.24c4.47,5.02,12.52,4.28,16.01-1.46l72.09-118.75c3.61-5.94,.2-13.66-6.62-15l-215.78-42.5c-9.4-1.85-15.78,9.31-9.4,16.46Z"/><circle class="cls-2" cx="321.45" cy="69.47" r="69.47"/><path class="cls-1" d="M37.7,42.83L7.13,231.91c-.89,5.48,2.87,10.64,8.35,11.48l228.71,35.1c9.24,1.42,15.2-9.5,9.01-16.51L55.06,37.8c-5.59-6.32-16.02-3.31-17.36,5.03Z"/><path class="cls-3" d="M40.61,257.02l91.7,14.68c7.81,1.25,11.14,10.63,5.88,16.53l-54.33,60.89c-4.72,5.29-13.29,4.13-16.43-2.23l-37.36-75.57c-3.6-7.28,2.52-15.59,10.54-14.31Z"/><path class="cls-5" d="M63.32,32.14l12.56,13c5.27,5.45,14.44,3.29,16.73-3.94l5.2-16.46c2.28-7.24-4-14.28-11.45-12.83l-17.76,3.47c-7.78,1.52-10.79,11.06-5.27,16.77Z"/><path class="cls-3" d="M6.92,268.47L.05,332.72c-.71,6.64,6.9,10.88,12.17,6.79l24.31-18.88c3.85-2.99,4.99-8.33,2.68-12.63l-22.28-41.48c-2.48-4.62-9.45-3.26-10.01,1.96Z"/></g></g></svg>