<?xml version="1.0" encoding="UTF-8"?><svg id="Layer_2" xmlns="http://www.w3.org/2000/svg" viewBox="0 0 274.33 456.7"><defs><style>.cls-1{fill:#ed9489;}.cls-2{fill:#c26655;}.cls-3{fill:#d94550;}.cls-4{fill:#51b1c9;}</style></defs><g id="Layer_1-2"><g><circle class="cls-3" cx="78.64" cy="364.86" r="67.26"/><path class="cls-2" d="M172.75,384.39l-47.75,53.43c-5.61,6.28-1.42,16.26,6.99,16.65l48.16,2.23c5.73,.27,10.5-4.33,10.46-10.06l-.41-55.66c-.07-9.15-11.36-13.41-17.46-6.59Z"/><path class="cls-4" d="M5.33,189.51l15.99,8.45c6.22,3.28,13.79-.7,14.6-7.68l6.14-52.62c.68-5.79-6.78-8.7-10.21-3.99L1.92,174.78c-3.59,4.92-1.97,11.88,3.41,14.73Z"/><path class="cls-4" d="M79.06,7.55l-20.23,79.81c-1.36,5.35,1.87,10.78,7.22,12.15l179.86,46.01c7.79,1.99,12.87-7.98,6.67-13.1L95.12,2.3c-5.66-4.68-14.26-1.87-16.06,5.25Z"/><path class="cls-2" d="M129.75,18.18l130.06,106.36c4.77,3.9,11.57-1.23,9.13-6.89l-30.73-71.16c-1.12-2.59-3.28-4.59-5.95-5.5L135.41,7.99c-6.25-2.13-10.77,6.01-5.66,10.19Z"/><path class="cls-4" d="M70.56,261.96l-25.37-16.91c-3.11-2.07-4.8-5.7-4.39-9.41l9.96-90.63c.76-6.92,10.63-7.42,12.1-.62l23.03,107.15c1.89,8.78-7.85,15.4-15.32,10.42Z"/><path class="cls-1" d="M242.3,155.09L79.8,112.32c-7.28-1.92-13.99,4.6-12.29,11.94l37.28,160.31c1.45,6.24,9.08,8.61,13.81,4.29l127.89-116.72c5.85-5.34,3.47-15.04-4.2-17.06Z"/><path class="cls-2" d="M266.27,188.39l7.62,24.77c1.4,4.56-.61,9.48-4.82,11.75l-109.95,59.2c-5.58,3.01-10.9-4.37-6.29-8.72l97.02-91.34c5.39-5.08,14.24-2.74,16.41,4.34Z"/><path class="cls-2" d="M241.71,250.79l-100.09,52.81c-4.51,2.38-4.4,8.87,.19,11.1l68.05,33.03c5.2,2.52,11.45,.12,13.63-5.23l32.15-79.09c3.51-8.64-5.68-16.96-13.93-12.61Z"/><path class="cls-2" d="M168.77,337.73l13.72,6.06c6.61,2.92,8.04,11.68,2.69,16.55l-12.29,11.17c-6.14,5.58-16,1.69-16.69-6.57l-1.44-17.24c-.63-7.56,7.06-13.04,14.01-9.98Z"/></g></g></svg>