<?xml version="1.0" encoding="UTF-8"?><svg id="Layer_2" xmlns="http://www.w3.org/2000/svg" viewBox="0 0 387.13 246.14"><defs><style>.cls-1{fill:#eb5c4b;}.cls-2{fill:#8fb505;}.cls-3{fill:#d94550;}.cls-4{fill:#d6a671;}.cls-5{fill:#51b1c9;}</style></defs><g id="Layer_1-2"><g><path class="cls-3" d="M96.25,140.42c-23.53-1.19-42.86,18.13-41.67,41.67,1.02,20.15,17.39,36.52,37.54,37.55,23.53,1.2,42.87-18.14,41.68-41.67-1.02-20.15-17.39-36.52-37.54-37.54Z"/><path class="cls-1" d="M180.68,3.18L85.34,110.96c-5.67,6.41-.55,16.45,7.97,15.62l125.79-20.17c6.15-.99,9.91-7.29,7.86-13.17L196.37,5.64c-2.76-6.3-11.13-7.61-15.69-2.46Z"/><path class="cls-2" d="M283.41,71.01l-131.38,112.78c-3.17,2.72-1.23,7.92,2.95,7.9l173.27-1.1c7.29,.69,12.82-6.42,10.36-13.32l-37.27-104.37c-2.82-7.9-13.52-9.02-17.93-1.89Z"/><path class="cls-4" d="M254.6,205.61c-3.28-2.16-1.81-7.25,2.11-7.34l76.72-1.69c3.51,.42,5.6,4.14,4.14,7.36l-15.13,39.13c-1.35,2.98-5.08,4-7.76,2.12l-60.08-39.58Z"/><path class="cls-1" d="M350.98,238.06l.49-11.28c.14-3.21,3.21-5.47,6.32-4.64l26.46,7.06c3.89,1.04,3.82,6.59-.1,7.52l-26.98,6.45c-3.25,.78-6.34-1.77-6.19-5.11Z"/><path class="cls-5" d="M72.26,84.5l-63.19,6.61c-5.08,.53-8.82,5.02-8.41,10.12L0,216.19c-.06,10.53,14.11,13.99,18.9,4.61l62.55-122.31c3.75-6.67-1.58-14.79-9.19-13.99Z"/><path class="cls-2" d="M140.08,128.89l72.13-14.04c2.35-.46,3.79,2.49,1.98,4.06l-58.88,51.22c-6.01,4.98-15.16,2.14-17.3-5.36l-6.55-22.99c-1.7-6.03,2.39-12.16,8.62-12.89Z"/></g></g></svg>