<?xml version="1.0" encoding="UTF-8"?><svg id="Layer_2" xmlns="http://www.w3.org/2000/svg" viewBox="0 0 388.86 397.94"><defs><style>.cls-1{fill:#ed9489;}.cls-2{fill:#eb5c4b;}.cls-3{fill:#d94550;}.cls-4{fill:#53822b;}.cls-5{fill:#51b1c9;}</style></defs><g id="Layer_1-2"><g><circle class="cls-3" cx="92.73" cy="142.02" r="92.73"/><path class="cls-4" d="M57.71,40.49h92.39c6.2,0,8.12-8.4,2.53-11.09L93.63,.99c-3.88-1.87-8.52-1.04-11.52,2.05l-28.01,28.9c-3.1,3.2-.83,8.54,3.62,8.54Z"/><path class="cls-2" d="M41.06,235.52l101.57,25.15c8.8,2.18,10.39,13.99,2.49,18.43l-106.89,59.97c-6.91,3.88-15.37-1.44-14.87-9.34l5.32-85.12c.39-6.23,6.33-10.58,12.38-9.08Z"/><path class="cls-2" d="M73.02,330.4l49.7-28.64c7.18-4.14,15.98,1.75,14.91,9.96l-10.11,77.5c-1.14,8.71-12.15,11.83-17.69,5l-39.59-48.86c-3.87-4.78-2.55-11.89,2.78-14.96Z"/><path class="cls-1" d="M233.21,31.75l151.62,112.73c5.68,4.22,5.3,12.84-.73,16.54l-193.32,118.93c-7.36,4.53-16.61-1.78-15.08-10.29L217.4,38.01c1.32-7.31,9.85-10.68,15.81-6.25Z"/><path class="cls-5" d="M214.01,281.16l150.76-99.13c4.78-3.14,10.56,2.25,7.76,7.24l-53.81,95.6c-1.69,3-4.8,4.92-8.24,5.08l-92.18,4.39c-7.31,.35-10.4-9.17-4.29-13.18Z"/></g></g></svg>