<?xml version="1.0" encoding="UTF-8"?><svg id="Layer_2" xmlns="http://www.w3.org/2000/svg" viewBox="0 0 382.47 408.62"><defs><style>.cls-1{fill:#c26655;}.cls-2{fill:#d94550;}.cls-3{fill:#53822b;}.cls-4{fill:#76b2b4;}</style></defs><g id="Layer_1-2"><g><circle class="cls-2" cx="288.37" cy="94.1" r="94.1"/><path class="cls-4" d="M180.06,39.48l4.43,150.44c.14,4.61-5.5,6.93-8.65,3.56l-54.53-58.29c-1.53-1.41-1.9-3.67-.91-5.5l50.28-92.46c2.44-4.49,9.24-2.86,9.39,2.24Z"/><path class="cls-3" d="M9.82,211.83l298.84-5.37c10.18-.18,14.09,13.19,5.41,18.52L49.49,387.49c-5.87,3.6-13.54,.34-15-6.39L.23,223.96c-1.34-6.16,3.28-12.01,9.59-12.13Z"/><path class="cls-1" d="M322.75,234.35l-130.24,81.29c-6.95,4.34-6.02,14.74,1.59,17.77l136.99,54.57c6.72,2.51,13.82-2.66,13.49-9.83l-6.29-135.95c-.36-7.77-9.06-12.17-15.54-7.86Z"/><path class="cls-1" d="M85.02,377.48l32.25-18.14c8.69-4.89,18.4,4.56,13.75,13.38l-16.12,30.57c-2.89,5.49-10.04,7.04-14.95,3.25l-16.12-12.43c-5.68-4.37-5.04-13.12,1.2-16.64Z"/></g></g></svg>