<?xml version="1.0" encoding="UTF-8"?><svg id="Layer_2" xmlns="http://www.w3.org/2000/svg" viewBox="0 0 398.66 387.91"><defs><style>.cls-1{fill:#c9c21e;}.cls-2{fill:#d94550;}.cls-3{fill:#6dce97;}</style></defs><g id="Layer_1-2"><g><path class="cls-2" d="M212.7,336.74c-12.45,1.03-22.37,10.95-23.4,23.4-1.3,15.72,11.96,28.98,27.68,27.68,12.45-1.03,22.38-10.95,23.4-23.4,1.3-15.72-11.96-28.98-27.68-27.68Z"/><path class="cls-3" d="M109.18,13.49l-35.5,340.22c-.49,4.69,6.11,6.22,7.73,1.79L193.74,49.32c1.77-4.84-.41-10.23-5.06-12.46L123.45,5.51c-6.24-3-13.56,1.09-14.28,7.98Z"/><path class="cls-3" d="M271.95,5.19l31.64,57.6c2.34,4.26-1.66,9.21-6.31,7.82l-82.7-24.63c-4.14-1.23-5.16-6.63-1.76-9.29L257.03,2.12c4.86-3.8,11.96-2.34,14.92,3.06Z"/><path class="cls-3" d="M386.57,59.73l-53.57,11.28c-5.76,1.21-9.23,7.11-7.5,12.73l17.62,57.09c2.63,8.52,14.26,9.6,18.41,1.7l35.95-68.37c3.94-7.49-2.63-16.18-10.91-14.44Z"/><path class="cls-3" d="M73.5,62.84L4.14,112.98c-3.3,2.39-4.83,6.54-3.85,10.5l53.36,216.4c1.07,4.35,7.4,3.92,7.86-.54L89.3,71.98c.89-8.6-8.8-14.2-15.8-9.14Z"/><path class="cls-1" d="M112.5,369.89l251.44-104.51c2.4-1,3.64-3.67,2.84-6.15l-53.81-167.63c-1.25-3.9-6.4-4.72-8.81-1.41L106.53,362.34c-2.97,4.09,1.3,9.49,5.96,7.56Z"/><path class="cls-1" d="M107.43,343.15L281.06,94.27c3.81-5.47,1.31-13.06-5-15.2l-61.06-20.63c-5.11-1.73-10.67,.91-12.57,5.97L99.58,339.02c-1.84,4.92,4.84,8.44,7.85,4.13Z"/></g></g></svg>