<?xml version="1.0" encoding="UTF-8"?><svg id="Layer_2" xmlns="http://www.w3.org/2000/svg" viewBox="0 0 287.61 477.95"><defs><style>.cls-1{fill:#d94550;}.cls-2{fill:#6dce97;}.cls-3{fill:#51b1c9;}</style></defs><g id="Layer_1-2"><g><circle class="cls-1" cx="198.06" cy="337.66" r="73.35" transform="translate(-180.75 238.95) rotate(-45)"/><path class="cls-2" d="M215.62,.57L70.06,56.89c-7.58,2.93-7,13.86,.86,15.96l194.09,51.99c6.84,1.83,12.74-5.1,9.85-11.56L226.33,4.97c-1.83-4.08-6.53-6.02-10.71-4.4Z"/><path class="cls-2" d="M23.94,225.92L.44,295.71c-.51,1.5-.58,3.12-.2,4.66l15.49,64.06c1.22,5.04,8.58,4.38,8.89-.8l7.92-136.05c.3-5.14-6.94-6.54-8.59-1.66Z"/><path class="cls-2" d="M136.48,456.56l-97.11-32.22c-3.55-1.18-5.89-4.56-5.75-8.29l10.03-268.05c.25-6.75,9.74-7.99,11.72-1.53l91.8,299.65c2,6.53-4.2,12.59-10.68,10.44Z"/><path class="cls-2" d="M125.33,288.35l144.81-139.28c4.75-4.57,2.64-12.57-3.75-14.2L60.71,82.29c-6.39-1.63-12.09,4.4-10.09,10.69l60.88,191.85c1.88,5.94,9.35,7.84,13.84,3.52Z"/><path class="cls-3" d="M268.58,162.13l-72.26,74.23c-4.25,4.36-2.59,11.65,3.12,13.75l76.85,28.25c5.64,2.07,11.57-2.27,11.3-8.27l-4.6-102.47c-.33-7.36-9.29-10.76-14.42-5.49Z"/><path class="cls-3" d="M164.42,412.37l-12.49-3.33c-4.06-1.08-7.69,2.8-6.32,6.78l12.64,36.86c1.9,5.54,10.02,4.59,10.58-1.24l2.78-28.72c.46-4.75-2.58-9.13-7.19-10.36Z"/><path class="cls-2" d="M135.07,463.92l-20.46-6.94c-3.22-1.09-5.99,2.52-4.1,5.35l7.98,11.9c2.91,4.35,9.05,5,12.82,1.37l5.24-5.06c2.14-2.06,1.33-5.66-1.48-6.61Z"/></g></g></svg>