<?xml version="1.0" encoding="UTF-8"?><svg id="Layer_2" xmlns="http://www.w3.org/2000/svg" viewBox="0 0 399.94 371.23"><defs><style>.cls-1{fill:#8fb505;}.cls-2{fill:#d94550;}.cls-3{fill:#d6a671;}.cls-4{fill:#53822b;}</style></defs><g id="Layer_1-2"><g><path class="cls-4" d="M28.33,240.85L234.35,86.26c6.31-4.74,15.37-.64,15.97,7.23l8.62,112.05c.39,5.05-3.06,9.59-8.03,10.58l-214.64,42.55c-10.43,2.07-16.45-11.42-7.95-17.81Z"/><path class="cls-4" d="M350.45,57.14l-38.55,75.39c-3.42,6.69,1.49,14.63,9.01,14.55l55.4-.57c6.37-.07,11.05-5.99,9.65-12.2l-16.85-74.82c-2.06-9.13-14.4-10.68-18.66-2.35Z"/><path class="cls-1" d="M388.08,35.49l-5.88,1.11c-5.7,1.07-9.3,6.76-7.82,12.37l8.28,31.46c1.25,4.74,8,4.66,9.14-.1l7.85-32.68c1.69-7.05-4.45-13.5-11.57-12.16Z"/><path class="cls-2" d="M55.07,264.61C24.24,263.63-.95,288.82,.03,319.65c.89,27.92,23.63,50.66,51.55,51.56,30.83,.99,56.03-24.21,55.05-55.04-.89-27.92-23.63-50.66-51.55-51.55Z"/><path class="cls-3" d="M251.39,29.34L373.62,.11c4.12-.99,6.17,4.79,2.35,6.63l-114.83,55.12c-5.8,2.78-12.67-.55-14.08-6.82l-3.1-13.78c-1.2-5.34,2.11-10.65,7.43-11.92Z"/><path class="cls-4" d="M265.32,71.65l60.44-24.18c8.73-3.49,17.01,5.89,12.47,14.12l-51.8,93.82c-4.68,8.48-17.49,6.01-18.68-3.6l-8.63-69.65c-.56-4.51,1.99-8.83,6.21-10.52Z"/></g></g></svg>