<?xml version="1.0" encoding="UTF-8"?><svg id="Layer_2" xmlns="http://www.w3.org/2000/svg" viewBox="0 0 359.76 303.89"><defs><style>.cls-1{fill:#8fb505;}.cls-2{fill:#d94550;}.cls-3{fill:#53822b;}</style></defs><g id="Layer_1-2"><g><path class="cls-2" d="M70.65,52.74C30.81,50.72-1.93,83.44,.09,123.29c1.73,34.12,29.44,61.84,63.56,63.57,39.85,2.02,72.58-30.71,70.57-70.56-1.73-34.12-29.45-61.84-63.57-63.57Z"/><path class="cls-1" d="M336.37,9.22l10.76,135.83c.6,7.58-7.14,13.03-14.08,9.91L149.29,72.16c-8.41-3.79-7.64-15.97,1.18-18.68L323.47,.44c6.12-1.87,12.39,2.39,12.9,8.77Z"/><path class="cls-1" d="M212.39,302.09l143.07-99.95c7.96-5.56,4.12-18.07-5.59-18.2l-201.21-2.73c-7.72-.1-12.64,8.21-8.84,14.93l58.14,102.67c2.91,5.13,9.6,6.65,14.43,3.27Z"/><path class="cls-3" d="M144,98.54l-3.12,59.23c-.29,5.6,4.07,10.35,9.68,10.52l143.39,4.45c10.92,.34,14.4-14.58,4.44-19.1l-140.27-63.68c-6.41-2.91-13.75,1.54-14.12,8.58Z"/></g></g></svg>