<?xml version="1.0" encoding="UTF-8"?><svg id="Layer_2" xmlns="http://www.w3.org/2000/svg" viewBox="0 0 405.45 343.4"><defs><style>.cls-1{fill:#eb5c4b;}.cls-2{fill:#9f68e8;}.cls-3{fill:#d94550;}</style></defs><g id="Layer_1-2"><g><path class="cls-3" d="M135.6,134.79c-29.52-1.87-53.87,22.47-52,51.99,1.54,24.35,21.29,44.11,45.64,45.65,29.53,1.87,53.87-22.47,52.01-52-1.54-24.35-21.29-44.1-45.64-45.64Z"/><path class="cls-1" d="M185.02,210.6l-18.24,50.82c-1.78,4.96,4.52,8.8,8.11,4.94l33.49-35.98c3.2-3.44,3.58-8.63,.91-12.5l-6.62-9.59c-4.63-6.7-14.89-5.36-17.64,2.31Z"/><path class="cls-1" d="M136.64,283.81l8.29,47.85c1.61,9.3-9.37,15.45-16.46,9.21l-29.39-25.87c-4.27-3.76-4.55-10.32-.61-14.43l21.1-21.98c5.68-5.91,15.67-2.86,17.07,5.22Z"/><path class="cls-1" d="M127.19,241.76l22.48-6.33c7.85-2.21,14.9,5.39,12.1,13.05l-6.76,18.55c-2.32,6.37-10.18,8.63-15.53,4.47l-15.71-12.22c-6.47-5.04-4.47-15.3,3.43-17.52Z"/><path class="cls-1" d="M75.8,174.72v4.99c0,1.59-.94,3.03-2.4,3.67L1.78,214.65c-1.45,.63-2.51-1.44-1.15-2.25l69.13-41.13c2.67-1.59,6.05,.34,6.05,3.44Z"/><path class="cls-1" d="M224.15,7.51l11.45,165.09c.33,4.79-4.9,7.95-8.98,5.41l-79.17-49.12c-4.61-2.86-6.1-8.86-3.36-13.54L209.16,4c4-6.85,14.45-4.4,15,3.51Z"/><path class="cls-1" d="M236.56,16.79l8.02,119.57c.54,8.01,11.43,9.96,14.72,2.64l28.36-63.23c1.45-3.23,1.08-6.98-.96-9.86L248.9,12.41c-3.97-5.61-12.8-2.47-12.34,4.38Z"/><path class="cls-2" d="M309.48,72.55L387.68,14.71c6.37-4.71,15.43-.5,15.93,7.41l1.83,28.9c.31,4.86-2.93,9.24-7.67,10.36l-84.19,19.98c-5.25,1.25-8.43-5.6-4.09-8.81Z"/><path class="cls-2" d="M294.81,34.86l48.97-6.89c4.08-.57,6.19,4.71,2.84,7.1l-39.16,27.97c-4.91,3.51-11.78,1.9-14.63-3.42l-5.43-10.14c-3.28-6.13,.54-13.66,7.42-14.62Z"/></g></g></svg>