<?xml version="1.0" encoding="UTF-8"?><svg id="Layer_2" xmlns="http://www.w3.org/2000/svg" viewBox="0 0 395.23 342.25"><defs><style>.cls-1{fill:#c26655;}.cls-2{fill:#c9c21e;}.cls-3{fill:#d94550;}.cls-4{fill:#53822b;}.cls-5{fill:#51b1c9;}</style></defs><g id="Layer_1-2"><g><path class="cls-2" d="M202.62,271.74l-68.16,52.57c-8.39,6.47-2.27,19.84,8.11,17.71l108.7-22.28c8.45-1.73,10.89-12.64,3.98-17.81l-40.54-30.29c-3.59-2.69-8.54-2.65-12.09,.09Z"/><path class="cls-5" d="M70.3,266.41l20.65-65.19c2.13-6.72,10.36-9.19,15.84-4.74l6.83,5.55c4.04,3.29,4.89,9.13,1.94,13.42l-37.57,54.72c-2.81,4.1-9.19,.99-7.69-3.75Z"/><circle class="cls-3" cx="80.22" cy="80.22" r="80.22"/><path class="cls-4" d="M387.55,112.85l-97.48-23.36c-6.32-1.52-12.39,3.31-12.33,9.81l1.34,150.35c.09,9.54,12.21,13.55,17.97,5.95l96.14-126.98c4.35-5.75,1.37-14.08-5.64-15.76Z"/><path class="cls-5" d="M136.61,259.43l42.1,1.4c5.76,.19,8.19-7.26,3.42-10.5l-45.06-30.62c-3.86-2.63-9.1,.03-9.27,4.7l-.86,24.68c-.19,5.53,4.14,10.16,9.66,10.34Z"/><path class="cls-1" d="M104.63,187.2l151.05,101.2c6.79,4.55,15.88-.53,15.56-8.7l-8.18-207.6c-.32-8.04-9.51-12.43-15.97-7.63L104.22,170.88c-5.54,4.12-5.33,12.49,.41,16.33Z"/><path class="cls-1" d="M182.9,60.32l14.56,6.07c6.86,2.86,8.32,11.94,2.69,16.8l-15.17,13.11c-6.59,5.7-16.81,.82-16.53-7.88l.61-19.18c.22-7,7.38-11.61,13.84-8.91Z"/></g></g></svg>