<?xml version="1.0" encoding="UTF-8"?><svg id="Layer_2" xmlns="http://www.w3.org/2000/svg" viewBox="0 0 410.68 437.28"><defs><style>.cls-1{fill:#ed9489;}.cls-2{fill:#eb5c4b;}.cls-3{fill:#c9c21e;}.cls-4{fill:#d94550;}.cls-5{fill:#6dce97;}</style></defs><g id="Layer_1-2"><g><path class="cls-1" d="M128.67,81.84l-22.88,51.7c-1.92,4.33,2.7,8.65,6.9,6.45l36.6-19.22c2.3-1.21,3.29-3.98,2.28-6.37l-13.73-32.49c-1.7-4.03-7.41-4.08-9.18-.08Z"/><path class="cls-1" d="M137.97,138.92l-31.02,14.38c-1.8,.83-2.93,2.65-2.9,4.62l.38,21.56c.08,4.6,5.82,6.66,8.8,3.16l30.64-35.94c3.48-4.08-1.04-10.04-5.91-7.78Z"/><path class="cls-2" d="M333.75,4.99l-82.09,141.88c-5.18,8.96,4.99,18.93,13.84,13.56l140.36-85.13c5.59-3.39,6.48-11.15,1.79-15.71L349.38,2.84c-4.67-4.55-12.37-3.48-15.63,2.16Z"/><path class="cls-3" d="M336.78,256.39l-137.51-2.61c-9.53-.18-13.43-12.32-5.78-18.02l155.81-116.07c7.17-5.35,17.22,.7,15.86,9.54l-18.3,118.68c-.76,4.95-5.07,8.57-10.07,8.47Z"/><path class="cls-5" d="M283.64,266.7l-83.48-5.22c-8.94-.56-14.05,10.02-8.05,16.68l82.53,91.54c6.1,6.76,17.33,2.52,17.43-6.59l.95-86.33c.06-5.32-4.06-9.76-9.38-10.09Z"/><circle class="cls-4" cx="196.85" cy="374.62" r="51.85"/><path class="cls-5" d="M11.91,370.46l133.56-78.23c8.3-4.86,18.01,3.65,14.27,12.52l-44.05,104.42c-1.97,4.68-7.15,7.14-12.02,5.71l-89.51-26.19c-8.42-2.46-9.81-13.79-2.25-18.23Z"/><path class="cls-5" d="M11.77,398.38l27.06,4.8c8.4,1.49,11.19,12.13,4.62,17.56l-17.27,14.25c-4.92,4.06-12.34,2.53-15.26-3.14l-9.79-19.05c-3.78-7.36,2.5-15.86,10.64-14.42Z"/></g></g></svg>