<?xml version="1.0" encoding="UTF-8"?><svg id="Layer_2" xmlns="http://www.w3.org/2000/svg" viewBox="0 0 360.28 177.43"><defs><style>.cls-1{fill:#9f68e8;}.cls-2{fill:#8fb505;}.cls-3{fill:#c26655;}.cls-4{fill:#d94550;}</style></defs><g id="Layer_1-2"><g><path class="cls-1" d="M246.49,129.48l55.66-4.43c5.31-.42,10.02,3.39,10.71,8.68l2.92,22.39c1.03,7.91-7.17,13.79-14.33,10.27l-56.69-27.88c-4.34-2.13-3.1-8.63,1.72-9.02Z"/><path class="cls-1" d="M276.36,62.91l4.7,44.37c.59,5.55-3.48,10.5-9.03,11.01l-134.3,12.34c-6.04,.55-8.41-7.62-3.02-10.39l127.14-65.17c6.25-3.2,13.77,.86,14.51,7.85Z"/><circle class="cls-4" cx="323.08" cy="79.57" r="37.2"/><path class="cls-2" d="M2.04,16.02L83.06,124.34c2.92,3.91,8.24,5.13,12.58,2.91l99.31-51.03c7.94-4.08,6.96-15.72-1.54-18.43L13.07,.5C3.81-2.44-3.79,8.23,2.04,16.02Z"/><path class="cls-3" d="M172.11,134.84l24.4,.86c5.86,.21,10.29,5.4,9.57,11.22l-3.32,26.91c-.43,3.49-4.77,4.85-7.11,2.22l-28.1-31.48c-3.43-3.84-.58-9.92,4.57-9.74Z"/></g></g></svg>