<?xml version="1.0" encoding="UTF-8"?><svg id="Layer_2" xmlns="http://www.w3.org/2000/svg" viewBox="0 0 382.57 485.45"><defs><style>.cls-1{fill:#eb5c4b;}.cls-2{fill:#ffb554;}.cls-3{fill:#8fb505;}.cls-4{fill:#d94550;}.cls-5{fill:#6dce97;}</style></defs><g id="Layer_1-2"><g><circle class="cls-4" cx="297.83" cy="300.67" r="84.73"/><path class="cls-2" d="M31.58,152.37l330.17,62.72c8.77,1.67,15.16-8.11,10.12-15.47L238.14,4.35c-3.11-4.53-9.29-5.71-13.84-2.64L27.85,134.25c-7.4,4.99-5.05,16.45,3.73,18.11Z"/><path class="cls-5" d="M271.88,28.25l89.69,131.6c5.57,8.17,18.36,4.16,18.26-5.73l-.97-103.33c-.04-4.32-2.85-8.12-6.96-9.43l-88.71-28.27c-9.06-2.89-16.65,7.3-11.3,15.16Z"/><path class="cls-3" d="M199.12,431.45l-146.24,22.73c-3.97,.62-7.92-1.2-10.04-4.62l-20.93-33.81c-4.38-7.08,1.31-16.11,9.59-15.2l167.34,18.27c7.41,.81,7.65,11.49,.29,12.64Z"/><path class="cls-3" d="M231.29,414.75l-198.4-25.38c-6.93-.89-10.84-8.43-7.57-14.6l35.53-67.01c2.74-5.17,9.32-6.89,14.24-3.73l159.26,102.3c4.12,2.65,1.79,9.04-3.07,8.42Z"/><path class="cls-3" d="M148.9,450.9l36.5-6.77c9.25-1.72,15.54,9.13,9.45,16.31l-18.25,21.49c-3.51,4.13-9.68,4.72-13.9,1.31l-18.25-14.72c-6.65-5.36-3.95-16.06,4.45-17.62Z"/><path class="cls-1" d="M26.26,185.13L.64,253.65c-2.08,5.56,1.12,11.71,6.87,13.19l149.3,38.44c10.23,2.63,17.03-10.34,9.03-17.25L42.17,181.07c-5.27-4.56-13.47-2.46-15.91,4.06Z"/><path class="cls-1" d="M184.85,289.81L49.63,174.65c-3.32-2.83-.72-8.22,3.56-7.38l177.46,34.85c6.59,1.29,10.06,8.58,6.9,14.51l-37.4,70.26c-3,5.64-10.45,7.06-15.31,2.91Z"/><path class="cls-1" d="M102.36,300.76l93.05,25.48c2.21,.61,4.15,1.95,5.49,3.82l38.74,54.01c2.79,3.89-1.76,8.8-5.85,6.32l-134.79-81.78c-4.28-2.6-1.45-9.17,3.38-7.85Z"/></g></g></svg>