<?xml version="1.0" encoding="UTF-8"?><svg id="Layer_2" xmlns="http://www.w3.org/2000/svg" viewBox="0 0 368.82 463.3"><defs><style>.cls-1{fill:#e8a21c;}.cls-2{fill:#ffb554;}.cls-3{fill:#9f68e8;}.cls-4{fill:#8fb505;}.cls-5{fill:#c26655;}.cls-6{fill:#c9c21e;}.cls-7{fill:#d94550;}.cls-8{fill:#d6a671;}.cls-9{fill:#53822b;}.cls-10{fill:#395298;}.cls-11{fill:#76b2b4;}</style></defs><g id="Layer_1-2"><g id="_74X0Mx.tif"><circle class="cls-7" cx="232.79" cy="160.59" r="33.21"/><path class="cls-9" d="M324.26,4.44l-72.73,108.77c-3.3,4.93,1.98,11.07,7.35,8.57l104.16-48.61c5.06-2.36,7.2-8.4,4.77-13.43l-26.24-54.1c-3.37-6.95-13.02-7.62-17.31-1.19Z"/><path class="cls-9" d="M332.78,97.31l-63.05,27.25c-4.85,2.1-3.86,9.25,1.37,9.95l39.29,5.28c3.75,.5,7.47-1.15,9.6-4.28l20.04-29.43c3.34-4.9-1.8-11.12-7.24-8.77Z"/><path class="cls-11" d="M185.76,119.43l-32.06,32.71c-5.58,5.69-15.25,2.89-16.92-4.9l-7.85-36.64c-1.42-6.62,4.02-12.71,10.76-12.05l39.91,3.93c8.36,.82,12.04,10.95,6.16,16.95Z"/><path class="cls-3" d="M56.08,255.57l58.08,22.28c5.68,2.18,8.12,8.89,5.15,14.2l-33.73,60.54c-3.16,5.67-11.54,4.94-13.67-1.19l-28.87-83.21c-2.79-8.03,5.09-15.66,13.03-12.61Z"/><path class="cls-6" d="M12.38,391.18l63.18,15.41c8.34,2.03,10.41,12.94,3.4,17.88l-52.39,36.98c-5.89,4.16-14.11,.91-15.56-6.15L.21,402.91c-1.48-7.19,5.03-13.47,12.16-11.73Z"/><path class="cls-5" d="M56.78,393.93l-29.2-8.39c-7.68-2.21-9.8-12.09-3.7-17.25l24.29-20.53c5.91-5,15.02-1.67,16.31,5.96l4.92,28.91c1.23,7.26-5.54,13.32-12.62,11.29Z"/><path class="cls-2" d="M151.24,253.45l-32.05-20.89c-7.69-5.01-5.13-16.87,3.94-18.26l67.22-10.34c9.85-1.52,15.61,10.74,8.16,17.36l-35.16,31.23c-3.37,2.99-8.32,3.36-12.1,.9Z"/><path class="cls-4" d="M87.05,259.64l11.7,5.28c5.35,2.41,11.62-.28,13.55-5.82l5.04-14.41c1.88-5.39-3.49-10.46-8.76-8.28l-21.3,8.83c-6.35,2.63-6.49,11.58-.22,14.41Z"/><path class="cls-2" d="M199.58,185.44l-6.59-9.45c-3.7-5.3-11.38-5.76-15.67-.93l-13.83,15.53c-4.04,4.53-.26,11.64,5.76,10.83l24.76-3.33c6-.81,9.03-7.68,5.56-12.65Z"/><path class="cls-10" d="M181.45,135.21l-10.77,11.63c-3.86,4.17-1.83,10.95,3.69,12.3l8.73,2.14c7.03,1.73,13.51-4.36,12.23-11.49l-2-11.11c-1.01-5.61-8-7.65-11.87-3.47Z"/><path class="cls-1" d="M122.06,304.67l-4.12,8.44c-1.9,3.9-.25,8.6,3.67,10.46l21.9,10.35c3.35,1.58,6.79-2,5.07-5.28l-12.62-24.16c-2.96-5.66-11.1-5.55-13.91,.19Z"/><path class="cls-6" d="M165.88,310.19l3.55,3.63c1.67,1.71,4.46,1.58,5.96-.28l9.49-11.69c1.86-2.3-.6-5.55-3.32-4.38l-14.42,6.24c-2.57,1.11-3.23,4.46-1.27,6.47Z"/><path class="cls-8" d="M104.65,88.58l-6.05-9.29c-1-1.54-2.92-2.2-4.66-1.6l-15.77,5.46c-3.9,1.35-3.45,7.01,.62,7.72l21.82,3.84c3.45,.61,5.95-3.19,4.04-6.12Z"/></g></g></svg>