<?xml version="1.0" encoding="UTF-8"?><svg id="Layer_2" xmlns="http://www.w3.org/2000/svg" viewBox="0 0 285.98 445.7"><defs><style>.cls-1{fill:#f2efe2;}.cls-2{fill:#c9c21e;}.cls-3{fill:#d94550;}.cls-4{fill:#d6a671;}.cls-5{fill:#6dce97;}.cls-6{fill:#53822b;}.cls-7{fill:#51b1c9;}</style></defs><g id="Layer_1-2"><g><path class="cls-3" d="M197.25,233.47c-53.04-1.7-96.38,41.64-94.7,94.68,1.53,48.03,40.65,87.16,88.68,88.69,53.04,1.7,96.39-41.65,94.7-94.69-1.53-48.03-40.65-87.15-88.68-88.69Z"/><path class="cls-5" d="M163.14,11.01l91.49,186.62c2.25,4.6,9.13,3.28,9.53-1.83l9.63-124.45c.28-3.67-1.47-7.21-4.58-9.19L174.08,1.24c-6.48-4.15-14.33,2.85-10.94,9.76Z"/><path class="cls-6" d="M150.85,54.68L4.45,152.54c-7.09,4.74-5.38,15.61,2.83,17.93l234.55,66.48c8.49,2.41,15.71-6.57,11.54-14.35L165.22,58.27c-2.79-5.2-9.46-6.87-14.37-3.59Z"/><path class="cls-4" d="M9.75,199.14l23.68,174.09c1.33,9.76,14.47,11.92,18.86,3.11L125.41,229.4c2.79-5.62-.21-12.39-6.25-14.08l-96.79-27.16c-6.93-1.94-13.58,3.85-12.61,10.98Z"/><path class="cls-2" d="M76.43,350.56l-26.33,53.23c-2.4,4.86-.5,10.75,4.3,13.28l52.11,27.45c7.92,4.17,16.91-3.36,14.19-11.89l-25.77-80.68c-2.74-8.56-14.5-9.45-18.49-1.39Z"/><path class="cls-1" d="M142.12,106.81l65.93,47.39c4.91,3.53,5.59,10.58,1.44,14.98L53.6,334.38c-3.54,3.75-9.67-.06-7.87-4.9L126.91,111.44c2.3-6.18,9.85-8.48,15.21-4.63Z"/><path class="cls-7" d="M132.45,125.24c2.11-5.67,7.86-7.42,12.77-3.89l48.07,34.55c4.91,3.53,5.53,10.02,1.38,14.42l-122.95,130.29c-4.15,4.4-5.82,3.36-3.71-2.31L132.45,125.24Z"/></g></g></svg>
