<?xml version="1.0" encoding="UTF-8"?><svg id="Layer_2" xmlns="http://www.w3.org/2000/svg" viewBox="0 0 410.73 365.96"><defs><style>.cls-1{fill:#ed9489;}.cls-2{fill:#eb5c4b;}.cls-3{fill:#d94550;}.cls-4{fill:#51b1c9;}</style></defs><g id="Layer_1-2"><g><path class="cls-3" d="M260.6,204.62c-45.77-.85-83.04,36.42-82.2,82.18,.8,43.13,35.99,78.33,79.12,79.14,45.77,.85,83.05-36.42,82.2-82.19-.8-43.13-35.99-78.33-79.12-79.13Z"/><path class="cls-1" d="M142.1,71.44L218.33,10.67c4.99-3.98,12.38-2.33,15.2,3.4l82.01,166.52c4.52,9.18-6.02,18.42-14.53,12.73L142.78,87.57c-5.63-3.76-5.97-11.91-.68-16.13Z"/><path class="cls-4" d="M167.06,173.03l36.72-27.17c3.5-2.59,8.27-2.62,11.8-.07l44.79,32.31c8.13,5.87,3.53,18.72-6.48,18.09l-81.51-5.14c-9.31-.59-12.82-12.47-5.32-18.02Z"/><path class="cls-1" d="M318.71,10.84l12.84,156.96c.75,9.14,12.37,12.54,17.92,5.24l59.22-77.76c2.92-3.84,2.69-9.22-.56-12.79L336.07,3.3c-6.42-7.06-18.14-1.97-17.36,7.55Z"/><path class="cls-4" d="M118.52,341.31l35.82,19.8c6.51,3.6,14.52-.91,14.83-8.34l2.83-68.35c.4-9.67-11.79-14.21-17.81-6.64l-38.65,48.55c-3.85,4.84-2.43,11.99,2.99,14.98Z"/><path class="cls-4" d="M23.72,218.07L.58,284.48c-2.74,7.86,4.77,15.44,12.66,12.76l54.84-18.62c6.21-2.11,8.75-9.53,5.12-15l-31.7-47.8c-4.57-6.89-15.06-5.57-17.78,2.24Z"/><path class="cls-4" d="M75.03,221.93l35.49-1.76c9.18-.45,14.06,10.67,7.51,17.12l-21.43,21.08c-4.36,4.29-11.51,3.7-15.1-1.25l-14.06-19.33c-4.67-6.43-.35-15.48,7.59-15.87Z"/><path class="cls-4" d="M50.37,293.95l-27.5,9.9c-6.45,2.32-8.7,10.3-4.42,15.66l17.6,22c5.01,6.26,14.98,4.38,17.36-3.28l9.9-31.9c2.45-7.88-5.17-15.17-12.94-12.37Z"/><path class="cls-2" d="M272.86,32.56l33.23,14.36c3.37,1.46,5.67,4.65,6,8.3l5.33,60.71c.96,10.93-13.84,15.21-18.86,5.44l-38.56-75.07c-4.29-8.35,4.25-17.47,12.86-13.75Z"/></g></g></svg>