<?xml version="1.0" encoding="UTF-8"?><svg id="Layer_2" xmlns="http://www.w3.org/2000/svg" viewBox="0 0 265.31 454.15"><defs><style>.cls-1{fill:#8fb505;}.cls-2{fill:#c26655;}.cls-3{fill:#d94550;}.cls-4{fill:#53822b;}</style></defs><g id="Layer_1-2"><g><circle class="cls-3" cx="144.19" cy="109.93" r="26.21"/><path class="cls-4" d="M250.84,1.08l-107.73,52.93c-7.49,3.68-7.44,14.36,.07,17.98l51.69,24.91c4.37,2.11,9.62,.77,12.46-3.17L263.36,15.9c6.08-8.45-3.18-19.41-12.53-14.82Z"/><path class="cls-1" d="M145.96,143.48l52.17,6.92c9.2,1.22,11.92,13.22,4.14,18.29l-47.38,30.88c-6.18,4.03-14.45,.2-15.38-7.12l-4.79-37.8c-.82-6.51,4.73-12.03,11.24-11.17Z"/><path class="cls-2" d="M6.42,404.35l127.89,49.13c6.34,2.44,13.21-2.02,13.57-8.8l12.16-228.69c.37-6.88-8.27-10.22-12.63-4.89L2.26,388.68c-4.31,5.27-2.2,13.22,4.16,15.66Z"/><path class="cls-1" d="M187.67,115.95l11.74-2.83c2.49-.6,4.89,1.26,4.94,3.82l.06,3.3c.04,2.48-2.16,4.4-4.61,4.02l-11.85-1.84c-3.57-.55-3.78-5.62-.27-6.47Z"/></g></g></svg>