<?xml version="1.0" encoding="UTF-8"?><svg id="Layer_2" xmlns="http://www.w3.org/2000/svg" viewBox="0 0 420 351.74"><defs><style>.cls-1{fill:#9f68e8;}.cls-2{fill:#c26655;}.cls-3{fill:#c9c21e;}.cls-4{fill:#d94550;}.cls-5{fill:#53822b;}.cls-6{fill:#51b1c9;}</style></defs><g id="Layer_1-2"><g><path class="cls-3" d="M92.64,6.64L7.14,260c-2.4,7.1,3.78,14.14,11.13,12.69l351.36-69.38c8.46-1.67,10.75-12.69,3.66-17.59L107.44,1.74c-5.34-3.69-12.72-1.24-14.8,4.9Z"/><path class="cls-1" d="M303.86,34.24l38.99,102.65c2.52,6.63,11.04,8.44,16.04,3.41l58.27-58.67c4.8-4.83,3.3-12.96-2.9-15.76l-97.26-43.98c-7.93-3.59-16.23,4.22-13.14,12.35Z"/><circle class="cls-4" cx="81.2" cy="310.25" r="41.49"/><path class="cls-2" d="M282.56,59.26l-17.45,26.84c-2.87,4.42-1.72,10.32,2.61,13.33l43.39,30.19c8.14,5.66,18.56-3.02,14.45-12.05l-25.94-57.03c-3.19-7.01-12.86-7.73-17.06-1.28Z"/><path class="cls-5" d="M31.4,106.69l-24.9,8.82c-7.88,2.79-8.83,13.54-1.57,17.68l18.03,10.26c5.26,2.99,11.95,.52,14-5.17l6.87-19.08c2.79-7.74-4.68-15.25-12.44-12.5Z"/><path class="cls-6" d="M318.67,232.59l12.78,90.38c1.45,10.29,15.84,11.48,18.96,1.57l24.15-76.52c2.68-5.28,.09-11.71-5.51-13.64l-37.65-13.02c-7.17-2.48-14.3,3.81-12.74,11.23Z"/></g></g></svg>