<?xml version="1.0" encoding="UTF-8"?><svg id="Layer_2" xmlns="http://www.w3.org/2000/svg" viewBox="0 0 408.93 363.86"><defs><style>.cls-1{fill:#ed9489;}.cls-2{fill:#f1b8b5;}.cls-3{fill:#eb5c4b;}.cls-4{fill:#8fb505;}.cls-5{fill:#d94550;}</style></defs><g id="Layer_1-2"><g><path class="cls-4" d="M.1,191.49l20.09,147.37c1.01,7.45,9.57,11.15,15.7,6.8l133.35-94.68c6.64-4.72,5.16-14.97-2.54-17.61L13.25,180.69c-7.04-2.42-14.16,3.43-13.16,10.81Z"/><path class="cls-3" d="M121.89,61.94L55.98,166.34c-3.45,5.47-.89,12.72,5.23,14.8l242.68,82.64c9.88,3.36,17.66-8.75,10.49-16.34L137.62,60.41c-4.48-4.74-12.24-3.99-15.72,1.53Z"/><path class="cls-1" d="M243.39,6.29l-35.75,89.37c-3.42,8.54,5.53,16.77,13.76,12.66l106.08-56.28c7.37-3.69,7.37-14.2,0-17.89L257.15,1.06c-5.23-2.62-11.58-.2-13.76,5.23Z"/><path class="cls-2" d="M391.02,32.32L236.71,118.81c-5.52,3.09-6.81,10.47-2.68,15.26l157.33,182.23c6.09,7.06,17.67,2.67,17.57-6.65l-3.03-268.72c-.09-7.59-8.27-12.32-14.89-8.61Z"/><circle class="cls-5" cx="313.25" cy="320.05" r="43.81"/></g></g></svg>