<?xml version="1.0" encoding="UTF-8"?><svg id="Layer_2" xmlns="http://www.w3.org/2000/svg" viewBox="0 0 420 463.81"><defs><style>.cls-1{fill:#ed9489;}.cls-2{fill:#9f68e8;}.cls-3{fill:#8fb505;}.cls-4{fill:#c9c21e;}.cls-5{fill:#d94550;}</style></defs><g id="Layer_1-2"><g><path class="cls-2" d="M260.03,3.06L56.37,214.59c-6.15,6.39-1.53,17.03,7.34,16.9l289.9-4.53c7.05-.11,11.77-7.3,9.05-13.81L276.42,6.14c-2.76-6.63-11.41-8.26-16.4-3.08Z"/><path class="cls-2" d="M66.46,182.81l-37.05,35.55c-5.32,5.11-14.16,2.87-16.41-4.15L.48,175.15c-2.15-6.72,3.16-13.49,10.2-13l49.57,3.5c8.63,.61,12.45,11.16,6.2,17.15Z"/><path class="cls-1" d="M138.49,308.54l-61.39,56.06c-3.25,2.96-4.17,7.71-2.27,11.67l39.15,81.86c4.22,8.82,17.29,6.94,18.85-2.72l22.24-137.91c1.5-9.33-9.6-15.33-16.58-8.96Z"/><path class="cls-4" d="M268.79,325.23l-105.64,57.62c-8.53,4.65-6.05,17.52,3.6,18.67l106.56,12.64c5.99,.71,11.23-4.01,11.15-10.04l-.91-70.26c-.1-7.52-8.15-12.23-14.75-8.63Z"/><path class="cls-5" d="M223.38,237.25c-29-1.47-52.83,22.35-51.36,51.35,1.26,24.83,21.43,45.01,46.26,46.27,29,1.47,52.83-22.35,51.36-51.35-1.26-24.83-21.43-45.01-46.27-46.27Z"/><path class="cls-3" d="M420,172.34v41.99c0,8.79-10.55,13.29-16.89,7.2l-31.43-30.19c-5.29-5.09-3.47-13.96,3.4-16.54l31.43-11.8c6.52-2.45,13.48,2.37,13.48,9.34Z"/><path class="cls-4" d="M163,334.65l-3.38,20.06c-1.37,8.13,7.15,14.31,14.45,10.5l18.27-9.53c6.62-3.45,7.24-12.68,1.14-16.99l-14.9-10.53c-6-4.24-14.38-.76-15.6,6.49Z"/></g></g></svg>