<?xml version="1.0" encoding="UTF-8"?><svg id="Layer_2" xmlns="http://www.w3.org/2000/svg" viewBox="0 0 406.36 399.41"><defs><style>.cls-1{fill:#d94550;}.cls-2{fill:#53822b;}</style></defs><g id="Layer_1-2"><g><path class="cls-2" d="M3.75,179.41L232.54,2.03c5.52-4.28,13.62-1.47,15.3,5.31l62.53,252.37c1.76,7.1-4.7,13.51-11.79,11.68L7.26,196.4c-7.78-2-9.86-12.07-3.51-17Z"/><path class="cls-2" d="M90.41,231.94l133.56,34.04c7.53,1.92,10.09,11.32,4.57,16.79l-114.67,113.74c-5.89,5.84-15.91,2.39-16.96-5.83l-18.89-147.77c-.89-7,5.55-12.7,12.39-10.96Z"/><circle class="cls-1" cx="385.19" cy="265.32" r="21.17"/><path class="cls-2" d="M313.8,241.96l6.78,27.9c.84,3.45,3.44,6.2,6.84,7.22l18.84,4.17c9.2,2.04,15.85-8.62,9.98-15.99l-26.92-33.8c-7.54-5.38-17.71,1.5-15.53,10.5Z"/></g></g></svg>