<?xml version="1.0" encoding="UTF-8"?><svg id="Layer_2" xmlns="http://www.w3.org/2000/svg" viewBox="0 0 384.74 404.21"><defs><style>.cls-1{fill:#8fb505;}.cls-2{fill:#d94550;}.cls-3{fill:#6dce97;}.cls-4{fill:#53822b;}.cls-5{fill:#51b1c9;}</style></defs><g id="Layer_1-2"><g><path class="cls-4" d="M140.09,398.44L3.43,279.2c-5.68-4.95-4.05-14.16,2.98-16.87l142.66-54.89c6.87-4.25,15.69,.99,15.24,9.06l-9.61,173.63c-.4,7.26-8.18,11.68-14.62,8.31Z"/><path class="cls-3" d="M184.06,13.92l1.46,113.71c.03,2.23,.8,4.38,2.19,6.12l100.08,124.98c7.27,9.08,21.56,.53,17.01-10.17L203.26,9.87c-4.29-10.09-19.34-6.92-19.2,4.04Z"/><circle class="cls-2" cx="309.08" cy="43.88" r="43.88"/><path class="cls-1" d="M167.07,393.61l10.95-186.96c.56-9.62,13.07-12.95,18.35-4.9l100.74,153.73c3.67,5.6,.91,13.16-5.51,15.07l-111.69,33.23c-6.65,1.98-13.24-3.25-12.83-10.17Z"/><path class="cls-5" d="M195.33,163.96l188.34,231.85c3.33,4.1-1.8,9.65-6.15,6.65l-57-39.33c-1.04-.72-1.94-1.63-2.64-2.68L189.54,168.23c-2.55-3.82,2.9-7.84,5.8-4.28Z"/><path class="cls-3" d="M267.55,86.29l63.3,16.27c5.21,1.34,8.42,6.55,7.28,11.81l-19.62,90.43c-2.08,9.6-15.31,10.76-19.03,1.67l-43.68-106.71c-3.12-7.61,3.78-15.52,11.74-13.47Z"/></g></g></svg>