<?xml version="1.0" encoding="UTF-8"?><svg id="Layer_2" xmlns="http://www.w3.org/2000/svg" viewBox="0 0 413.31 355.29"><defs><style>.cls-1{fill:#9f68e8;}.cls-2{fill:#c26655;}.cls-3{fill:#d94550;}.cls-4{fill:#d6a671;}.cls-5{fill:#53822b;}.cls-6{fill:#51b1c9;}</style></defs><g id="Layer_1-2"><g><circle class="cls-3" cx="282.52" cy="19.13" r="19.13"/><path class="cls-6" d="M6.36,289.88L.13,329c-1.31,8.25,7.48,14.38,14.76,10.29l40.45-22.67c7.06-3.96,6.74-14.23-.56-17.74l-34.23-16.45c-6.03-2.9-13.16,.83-14.21,7.44Z"/><path class="cls-2" d="M197.2,183.77l3.09-27.87c.57-5.12,4.94-8.97,10.09-8.9l7.1,.11c8.3,.12,12.84,9.72,7.68,16.22l-19.13,24.09c-3.1,3.91-9.39,1.32-8.83-3.64Z"/><path class="cls-2" d="M241.44,143.24l-9.98,19.97c-2.92,5.84,3.2,12.08,9.1,9.27l27.48-13.11c8.69-4.15,7.07-16.98-2.38-18.84l-13.34-2.62c-4.41-.87-8.86,1.32-10.87,5.34Z"/><path class="cls-1" d="M260.06,284.76l79.02,24.05c8.55,2.6,9.65,14.25,1.75,18.41l-48.48,25.53c-4.66,2.45-10.41,.88-13.17-3.6l-30.54-49.58c-4.83-7.84,2.61-17.49,11.43-14.81Z"/><path class="cls-5" d="M389.26,281.1l22.99,45.97c2.87,5.74-.33,12.66-6.56,14.18l-56.18,13.78c-7.23,1.77-13.06-6.01-9.31-12.45l36.02-61.91c2.97-5.1,10.41-4.86,13.04,.41Z"/><path class="cls-4" d="M346.1,292.64l-50.01-56.2c-3.51-3.95,.83-9.89,5.66-7.75l62.25,27.61c4.64,2.06,7,7.26,5.5,12.11l-6.38,20.55c-2.31,7.43-11.85,9.5-17.02,3.68Z"/><path class="cls-2" d="M323.25,232.3l-40.25-20.82c-3.04-1.57-3.81-5.58-1.57-8.17l8.92-10.31c2.24-2.59,6.23-2.65,8.54-.13l29.76,32.35c3.42,3.72-.91,9.4-5.4,7.08Z"/><path class="cls-2" d="M266.33,198.92l-16.81-10.46c-4.93-3.07-4.66-10.32,.47-13.02l17.72-9.31c7.6-3.99,16.36,2.81,14.38,11.16l-3.98,16.78c-1.24,5.22-7.23,7.69-11.79,4.86Z"/><path class="cls-4" d="M44.76,277.81c-4.03,3.16-9.08-2.38-5.56-6.1l65.2-68.97c1.28-1.46,3.68-.41,3.49,1.52l-2.2,22.01c-.31,3.08-2.02,5.85-4.64,7.49l-56.29,44.05Z"/><path class="cls-4" d="M99.88,166.88l6.36-11.45c1.25-2.25-.74-4.93-3.26-4.37l-7.64,1.7c-1.51,.34-2.51,1.77-2.31,3.3l1.27,9.76c.37,2.86,4.18,3.58,5.57,1.06Z"/><path class="cls-5" d="M231.64,258.97l7.71-25.55c1.81-5.99,9.7-7.31,13.36-2.24l30.9,42.86c3.06,4.25-.95,9.97-5.99,8.54l-39.14-11.11c-5.37-1.53-8.46-7.16-6.84-12.51Z"/></g></g></svg>