<?xml version="1.0" encoding="UTF-8"?><svg id="Layer_2" xmlns="http://www.w3.org/2000/svg" viewBox="0 0 286.91 484.03"><defs><style>.cls-1{fill:#eb5c4b;}.cls-2{fill:#d94550;}.cls-3{fill:#6dce97;}.cls-4{fill:#53822b;}</style></defs><g id="Layer_1-2"><g><path class="cls-1" d="M5.1,285.46L234.06,156.66c8.33-4.69,17.86,3.86,14.1,12.65l-94.61,221.01c-2.48,5.8-9.65,7.88-14.85,4.31L4.34,302.42c-6.1-4.19-5.7-13.33,.76-16.96Z"/><path class="cls-4" d="M258.92,173.28l-45.1,107.27c-2.7,6.42,1.82,13.56,8.77,13.87l53.87,2.4c6.3,.28,11.29-5.27,10.33-11.5l-16.99-110.88c-1.07-5.54-8.67-6.35-10.88-1.16Z"/><path class="cls-3" d="M95.09,37.51L44.62,227.75c-2.25,8.49,6.76,15.56,14.47,11.34l163.06-89.29c6.05-3.31,7.01-11.61,1.87-16.22L111.43,32.63c-5.56-4.99-14.43-2.34-16.34,4.88Z"/><path class="cls-4" d="M46.62,345.88l92.61,65.25c5.58,3.93,5.67,12.18,.17,16.23l-74.37,54.72c-6.06,4.46-14.68,.88-15.81-6.55l-18.24-119.97c-1.32-8.71,8.44-14.75,15.65-9.68Z"/><circle class="cls-2" cx="221.41" cy="49.66" r="49.66"/></g></g></svg>