<?xml version="1.0" encoding="UTF-8"?><svg id="Layer_2" xmlns="http://www.w3.org/2000/svg" viewBox="0 0 389.92 361.15"><defs><style>.cls-1{fill:#f1b8b5;}.cls-2{fill:#8fb505;}.cls-3{fill:#d94550;}.cls-4{fill:#d6a671;}</style></defs><g id="Layer_1-2"><g><path class="cls-2" d="M341.02,250.91l-49.12-41.26c-3.17-2.66-4.37-7-3.02-10.91l41.26-119.86c3.58-10.41,18.91-8.23,19.44,2.77l7.86,161.12c.43,8.72-9.74,13.76-16.42,8.14Z"/><path class="cls-1" d="M.79,306.44L89.69,94.06c3.37-8.06,14.73-8.22,18.33-.27l117.4,211.6c3.7,6.66-1.12,14.85-8.74,14.85l-206.66,.06c-7.14,0-11.98-7.27-9.22-13.86Z"/><path class="cls-4" d="M242.78,352.75l-28.07-172.16c0-8.49,9.9-13.11,16.41-7.67l155.18,129.7c7.17,5.99,2.93,17.67-6.41,17.67l-124.16,40.36c-5.83,1.89-11.97-1.85-12.96-7.9Z"/><circle class="cls-3" cx="251.38" cy="66.78" r="66.78"/></g></g></svg>