<?xml version="1.0" encoding="UTF-8"?><svg id="Layer_2" xmlns="http://www.w3.org/2000/svg" viewBox="0 0 412.55 278.8"><defs><style>.cls-1{fill:#c9c21e;}.cls-2{fill:#d94550;}.cls-3{fill:#53822b;}.cls-4{fill:#395298;}</style></defs><g id="Layer_1-2"><g><path class="cls-3" d="M1.83,219.64L153.3,4.27c5.62-7.99,18.18-4.01,18.18,5.75V267.99c0,6.63-6.33,11.42-12.71,9.63L7.3,235.02c-6.64-1.87-9.44-9.74-5.47-15.38Z"/><path class="cls-4" d="M404.56,168.27l-67.06-13.81c-6.58-1.36-12.6,4.04-11.97,10.73l9.86,104.53c.9,9.5,13.33,12.47,18.42,4.39l57.2-90.73c3.73-5.91,.4-13.72-6.44-15.13Z"/><path class="cls-1" d="M184.22,221.9V61.68c0-8.12,9.17-12.86,15.79-8.15l81.18,57.68c4.67,3.32,5.6,9.87,2.05,14.36l-81.18,102.54c-5.88,7.43-17.84,3.27-17.84-6.21Z"/><circle class="cls-2" cx="349.26" cy="89.53" r="58.33"/></g></g></svg>