<?xml version="1.0" encoding="UTF-8"?><svg id="Layer_2" xmlns="http://www.w3.org/2000/svg" viewBox="0 0 391.8 293.64"><defs><style>.cls-1{fill:#d94550;}.cls-2{fill:#d6a671;}</style></defs><g id="Layer_1-2"><g><path class="cls-1" d="M109.29,146.79c-34.35-2.17-62.66,26.14-60.5,60.49,1.79,28.33,24.77,51.31,53.09,53.1,34.35,2.17,62.67-26.14,60.5-60.49-1.79-28.32-24.77-51.31-53.1-53.1Z"/><path class="cls-2" d="M146.54,115.23l35.2,118.19c2.73,9.16,15.51,9.64,18.92,.72l41.26-107.92c2.3-6.03-1.62-12.62-8.01-13.48l-76.47-10.27c-7.19-.97-12.99,5.81-10.91,12.77Z"/><path class="cls-2" d="M260.68,103.55l-41.46,118.45c-1.6,4.56,2.15,9.21,6.95,8.62l159.9-19.74c5.66-.7,7.76-7.82,3.37-11.47l-118.45-98.71c-3.49-2.91-8.82-1.44-10.32,2.85Z"/><path class="cls-2" d="M23.04,204.76L6.68,281.67c-.81,3.81,1.88,7.48,5.76,7.84l43.37,4.09c4.69,.44,8.28-4.08,6.79-8.55l-27-81.01c-2.1-6.3-11.17-5.79-12.55,.7Z"/><path class="cls-2" d="M285.56,22.42L357.98,.29c4.44-1.36,8.83,2.23,8.39,6.85l-4.69,49.29c-.41,4.33-4.87,7.05-8.91,5.43l-67.73-27.16c-5.71-2.29-5.36-10.48,.52-12.28Z"/><path class="cls-2" d="M314.77,52.58l4.69,1.56c3,1,4.24,4.57,2.5,7.21l-5.83,8.84c-1.73,2.62-5.77,1.69-6.19-1.42l-1.47-11c-.47-3.53,2.92-6.33,6.29-5.2Z"/><path class="cls-2" d="M40.79,185.92l-7.93,4.46c-4.4,2.47-9.95,1.28-12.94-2.77L.72,161.64c-2.15-2.91,.91-6.79,4.24-5.38l35.01,14.85c6.32,2.68,6.8,11.45,.82,14.81Z"/></g></g></svg>