<?xml version="1.0" encoding="UTF-8"?><svg id="Layer_2" xmlns="http://www.w3.org/2000/svg" viewBox="0 0 393.65 313.71"><defs><style>.cls-1{fill:#8fb505;}.cls-2{fill:#d94550;}.cls-3{fill:#53822b;}.cls-4{fill:#51b1c9;}</style></defs><g id="Layer_1-2"><g><path class="cls-2" d="M195.22,.03c-30.19-.97-54.87,23.71-53.91,53.9,.87,27.34,23.14,49.62,50.48,50.49,30.2,.97,54.88-23.71,53.91-53.91C244.83,23.17,222.56,.9,195.22,.03Z"/><path class="cls-4" d="M261.94,13.87l126.43,67.73c4.41,2.36,6.4,7.62,4.65,12.31l-23.33,62.46c-2.72,7.29-12.37,8.81-17.21,2.71L249.38,28.9c-6.74-8.51,3-20.15,12.56-15.02Z"/><path class="cls-4" d="M43.28,124.59l57.93,92.05c4.03,6.4,13.44,6.19,17.16-.4l50.79-89.67c3.73-6.58-.92-14.76-8.48-14.93l-108.72-2.38c-7.97-.17-12.93,8.58-8.68,15.32Z"/><path class="cls-4" d="M59.44,170.35l30.79,52.48c2.51,4.28,1.5,9.77-2.38,12.87L8.27,299.37c-3.96,3.17-9.61-.79-7.99-5.59l41.06-121.56c2.74-8.12,13.76-9.25,18.1-1.86Z"/><path class="cls-1" d="M63.04,267.48l-29.47,27.76c-4.69,4.42-2.34,12.3,4.01,13.43l27.56,4.9c5.38,.96,10.46-2.8,11.12-8.23l3.57-29.38c1.13-9.29-9.97-14.9-16.78-8.49Z"/><path class="cls-3" d="M110.56,50.9l-22.64,35.99c-3.16,5.03,.31,11.6,6.25,11.81l36.1,1.28c7.01,.25,12.09-6.61,9.81-13.24l-11.6-33.76c-2.73-7.94-13.45-9.18-17.92-2.07Z"/><path class="cls-1" d="M253.06,68.15l-3.9,9.93c-1.78,4.54,.97,9.59,5.75,10.54l11.68,2.34c7.18,1.44,12.23-6.89,7.64-12.59l-9.65-11.98c-3.25-4.03-9.63-3.05-11.52,1.76Z"/></g></g></svg>