<?xml version="1.0" encoding="UTF-8"?><svg id="Layer_2" xmlns="http://www.w3.org/2000/svg" viewBox="0 0 410.2 200.59"><defs><style>.cls-1{fill:#9f68e8;}.cls-2{fill:#8fb505;}.cls-3{fill:#d94550;}.cls-4{fill:#d6a671;}.cls-5{fill:#53822b;}</style></defs><g id="Layer_1-2"><g><path class="cls-3" d="M101.75,64.09c-24.81-1.26-45.2,19.12-43.94,43.94,1.07,21.25,18.34,38.51,39.58,39.59,24.82,1.26,45.2-19.12,43.95-43.94-1.08-21.25-18.34-38.51-39.59-39.59Z"/><path class="cls-1" d="M66.85,66.18l-6.73,1.57c-3.09,.72-6.32-.34-8.38-2.76L24.36,32.85c-2.79-3.27,1.16-7.93,4.85-5.71l40,24.14c6.25,3.77,4.76,13.24-2.35,14.9Z"/><path class="cls-5" d="M41.47,127.44l-20.96,8.54c-8.22,3.35-8.33,14.96-.17,18.45l36.22,15.52c9.03,3.87,17.65-6.25,12.38-14.55l-15.27-24.06c-2.59-4.09-7.74-5.73-12.22-3.9Z"/><path class="cls-5" d="M21.81,162.76l22.92,10.21c8.57,3.82,7.64,16.27-1.41,18.77l-30.64,8.47c-8.02,2.22-15.09-5.77-11.91-13.46l7.72-18.68c2.15-5.2,8.17-7.61,13.31-5.31Z"/><path class="cls-2" d="M143.98,36.84l258.33,55.96c8.66,1.88,10.78,13.26,3.37,18.13l-54.48,35.8c-3.01,1.98-6.85,2.18-10.05,.54L141.12,44.84c-4.46-2.28-2.04-9.05,2.86-7.99Z"/><path class="cls-2" d="M133.32,55.75l89.61,42.92c6.14,2.94,7.61,11.02,2.9,15.94l-9.99,10.43c-3.65,3.81-9.64,4.13-13.67,.72l-73.84-62.3c-4.15-3.5,.08-10.06,4.98-7.71Z"/><path class="cls-4" d="M221.36,34.49L364.86,.27c4.94-1.18,9.97,1.53,11.71,6.3l21.32,58.44c2.69,7.39-3.79,14.85-11.48,13.21L221.46,43.01c-4.55-.97-4.63-7.44-.1-8.52Z"/></g></g></svg>