<?xml version="1.0" encoding="UTF-8"?><svg id="Layer_2" xmlns="http://www.w3.org/2000/svg" viewBox="0 0 406.91 461.61"><defs><style>.cls-1{fill:#c9c21e;}.cls-2{fill:#d94550;}.cls-3{fill:#d6a671;}.cls-4{fill:#6dce97;}.cls-5{fill:#76b2b4;}</style></defs><g id="Layer_1-2"><g><path class="cls-3" d="M244.28,213.93l153.47,13.19c7.7,.66,11.77,9.44,7.3,15.75l-99.51,140.28c-4.69,6.62-14.9,5.18-17.59-2.47l-53.95-153.47c-2.41-6.85,3.06-13.9,10.29-13.28Z"/><path class="cls-5" d="M239.26,282.2l40.74,124.43c1.55,4.75-.63,9.91-5.12,12.1l-85.89,41.84c-7.72,3.76-16.28-3.32-14.03-11.61l45.15-166.27c2.6-9.58,16.06-9.93,19.15-.49Z"/><path class="cls-4" d="M272.08,169.75L211.41,6.52c-1.69-4.55-6.4-7.23-11.18-6.35L72.47,23.61c-8.6,1.58-11.18,12.66-4.15,17.87l188.43,139.8c7.99,5.93,18.8-2.19,15.33-11.52Z"/><path class="cls-1" d="M94.22,361.79L5.26,313.89c-6.74-3.63-7.07-13.19-.59-17.27l153.98-96.95c8.38-5.27,18.5,3.53,14.45,12.56l-65.01,144.85c-2.38,5.3-8.75,7.46-13.86,4.71Z"/><circle class="cls-2" cx="108.82" cy="151.51" r="58.91"/><path class="cls-1" d="M129.2,339.7l-9.35,21.14c-2.17,4.89-.09,10.63,4.7,13l12.35,6.13c7.08,3.51,15.25-2.19,14.38-10.05l-3-27.27c-1.12-10.16-14.95-12.3-19.08-2.95Z"/><path class="cls-3" d="M286.86,122.92l61.34,75.11c5.59,6.85,.2,17.06-8.62,16.29l-42.98-3.76c-4.22-.37-7.76-3.36-8.81-7.47l-18.36-71.35c-2.67-10.38,10.65-17.12,17.43-8.82Z"/></g></g></svg>