<svg id="Layer_2" xmlns="http://www.w3.org/2000/svg" viewBox="0 0 2368.04 961.6"><defs><filter id="drop-shadow-1" filterUnits="userSpaceOnUse"><feOffset dx="7" dy="7"/><feGaussianBlur result="blur" stdDeviation="12"/><feFlood flood-color="#00602b" flood-opacity=".1"/><feComposite in2="blur" operator="in"/><feComposite in="SourceGraphic"/></filter><style>.cls-2{fill:#f1b8b5}.cls-3{fill:#e8a21c}.cls-4{fill:#9f68e8}.cls-5{fill:#8fb505}.cls-7{fill:#c9c21e}.cls-8{fill:#d94550}.cls-9{fill:#d6a671}.cls-11{fill:#53822b}.cls-12{fill:#395298}.cls-13{fill:#76b2b4}.cls-14{fill:#51b1c9}</style></defs><g style="filter:url(#drop-shadow-1)" id="Layer_1-2"><path class="cls-5" d="m1401.31 455.45 12.05 88.4c.61 4.47 5.74 6.69 9.42 4.08l79.99-56.79c3.98-2.83 3.1-8.98-1.52-10.56l-92.04-31.6c-4.22-1.45-8.49 2.06-7.89 6.48ZM1474.37 377.73l-39.53 62.62c-2.07 3.28-.53 7.63 3.14 8.88l145.57 49.57c5.93 2.02 10.59-5.25 6.29-9.8l-106.03-112.19c-2.69-2.85-7.34-2.39-9.43.92ZM1547.25 344.35l-21.44 53.61c-2.05 5.12 3.32 10.06 8.25 7.59l63.63-33.76c4.42-2.21 4.42-8.52 0-10.73l-42.19-19.85a5.994 5.994 0 0 0-8.25 3.14ZM1635.8 359.97l-92.56 51.88c-3.31 1.86-4.09 6.28-1.61 9.15L1636 530.31c3.65 4.23 10.6 1.6 10.54-3.99l-1.82-161.19c-.05-4.55-4.96-7.39-8.93-5.16Z"/><circle class="cls-8" cx="1589.15" cy="532.56" r="26.28"/><path class="cls-5" d="m2144.43 89.46-51.28 151.97c-1.44 4.26 2.27 8.48 6.68 7.61l210.76-41.61c5.07-1 6.45-7.61 2.2-10.55L2153.32 86.52c-3.2-2.21-7.63-.75-8.87 2.94ZM2271.13 106.01l23.39 61.57c1.51 3.98 6.62 5.06 9.62 2.05l34.95-35.19c2.88-2.9 1.98-7.77-1.74-9.46l-58.34-26.38c-4.76-2.15-9.74 2.53-7.88 7.41Z"/><circle class="cls-8" cx="2137.57" cy="271.57" r="24.89"/><path class="cls-5" d="m2258.35 121.02-10.46 16.1c-1.72 2.65-1.03 6.19 1.56 7.99l26.03 18.11c4.88 3.4 11.13-1.81 8.67-7.23l-15.56-34.21c-1.91-4.21-7.72-4.64-10.23-.77ZM2107.7 149.47l-14.94 5.29c-4.72 1.67-5.3 8.12-.94 10.6l10.81 6.15c3.16 1.8 7.17.31 8.4-3.1l4.12-11.44c1.67-4.65-2.8-9.15-7.46-7.5ZM2280.01 224.99l7.67 54.21c.87 6.17 9.5 6.88 11.38.94l14.48-45.9c1.61-3.16.05-7.02-3.3-8.18l-22.58-7.81c-4.3-1.49-8.58 2.29-7.64 6.74ZM1145.61 251.24l33.39-2.66a5.989 5.989 0 0 1 6.42 5.2l1.75 13.43c.62 4.75-4.3 8.27-8.6 6.16l-34-16.72c-2.6-1.28-1.86-5.18 1.03-5.41ZM1163.53 211.31l2.82 26.61c.35 3.33-2.08 6.3-5.42 6.6l-80.56 7.4c-3.62.33-5.05-4.57-1.81-6.23l76.26-39.09c3.75-1.92 8.26.52 8.7 4.71Z"/><circle class="cls-8" cx="1191.55" cy="221.3" r="22.31"/><path class="cls-5" d="m998.98 183.18 48.6 64.98a5.993 5.993 0 0 0 7.54 1.74l59.57-30.61c4.76-2.45 4.18-9.43-.93-11.05l-108.17-34.37c-5.56-1.77-10.11 4.64-6.62 9.31ZM1101 254.46l14.64.52c3.52.12 6.17 3.24 5.74 6.73l-1.99 16.14c-.26 2.09-2.86 2.91-4.27 1.33l-16.86-18.88c-2.06-2.3-.35-5.95 2.74-5.84ZM348.53 49.09 334.81 80.1c-1.15 2.6 1.62 5.19 4.14 3.87l21.96-11.53a2.994 2.994 0 0 0 1.37-3.82l-8.23-19.49c-1.02-2.42-4.44-2.45-5.51-.05ZM354.1 83.33l-18.61 8.62a3 3 0 0 0-1.74 2.77l.23 12.94c.05 2.76 3.49 4 5.28 1.89l18.38-21.56c2.09-2.45-.62-6.02-3.54-4.67ZM471.54 3 422.3 88.1c-3.11 5.37 2.99 11.35 8.3 8.13l84.19-51.06c3.35-2.03 3.89-6.69 1.07-9.43L480.91 1.7c-2.8-2.73-7.42-2.09-9.38 1.29ZM473.35 153.79l-82.48-1.57c-5.72-.11-8.05-7.39-3.47-10.81l93.46-69.62c4.3-3.21 10.33.42 9.51 5.72l-10.98 71.19a5.993 5.993 0 0 1-6.04 5.08ZM441.48 159.98l-50.07-3.13c-5.36-.34-8.43 6.01-4.83 10l49.51 54.91c3.66 4.06 10.39 1.51 10.45-3.95l.57-51.78c.04-3.19-2.44-5.85-5.62-6.05Z"/><circle class="cls-8" cx="389.42" cy="224.71" r="31.1"/><path class="cls-5" d="m278.49 222.22 80.12-46.92c4.98-2.92 10.8 2.19 8.56 7.51l-26.42 62.63a6.003 6.003 0 0 1-7.21 3.43l-53.69-15.71c-5.05-1.48-5.89-8.27-1.35-10.93ZM278.4 238.96l16.23 2.88c5.04.89 6.71 7.28 2.77 10.53l-10.36 8.55c-2.95 2.44-7.4 1.52-9.15-1.89l-5.87-11.43c-2.27-4.41 1.5-9.51 6.38-8.65ZM977.17 683.44l99.44 86.88c3.66 3.19 2.2 9.18-2.51 10.34l-68.04 16.75c-3.1.76-6.25-1.03-7.17-4.08l-31.4-103.63c-1.75-5.77 5.15-10.22 9.69-6.26Z"/><circle class="cls-8" cx="1022.07" cy="889.84" r="43.51"/><path class="cls-5" d="m972.68 902.51 17.96 30.43c2.05 3.47.16 7.94-3.77 8.88l-81.85 19.64c-4.37 1.05-7.19-4.5-3.77-7.41l62.37-53.07c2.84-2.41 7.16-1.69 9.05 1.52ZM999.91 841.39h38.58c6.05 0 8.3-7.95 3.14-11.11l-36.51-22.4c-3.79-2.32-8.7.13-9.11 4.56l-2.07 22.4c-.33 3.52 2.44 6.55 5.97 6.55ZM1023.72 810.43l28.37 16.27c3.47 1.99 7.88.09 8.82-3.8l5.84-24.2c1.05-4.34-2.84-8.26-7.18-7.25l-34.21 7.93c-5.31 1.23-6.36 8.33-1.63 11.05Z"/><path class="cls-8" d="M1941.55 831.84c-14.12-.72-25.71 10.88-25 24.99.61 12.09 10.43 21.91 22.52 22.52 14.12.72 25.71-10.88 25-25-.61-12.09-10.43-21.91-22.52-22.52Z"/><path class="cls-5" d="M1992.19 749.52 1935 814.17c-3.4 3.84-.33 9.87 4.78 9.37l75.46-12.1c3.69-.59 5.94-4.37 4.71-7.9L2001.6 751c-1.66-3.78-6.67-4.57-9.41-1.47ZM2053.81 790.2 1975 857.85c-1.9 1.63-.74 4.75 1.77 4.74l103.93-.66c4.37.41 7.69-3.85 6.22-7.99l-22.36-62.6c-1.69-4.74-8.11-5.41-10.75-1.13ZM2036.53 870.95c-1.97-1.29-1.09-4.35 1.27-4.4l46.02-1.01c2.11.25 3.36 2.48 2.48 4.41l-9.08 23.47a3.136 3.136 0 0 1-4.66 1.27l-36.04-23.74ZM2094.34 890.41l.29-6.77a3.01 3.01 0 0 1 3.79-2.78l15.87 4.23c2.33.62 2.29 3.95-.06 4.51l-16.18 3.87c-1.95.47-3.8-1.06-3.71-3.06ZM1927.16 798.3l-37.9 3.97a5.657 5.657 0 0 0-5.05 6.07l-.4 68.96c-.04 6.32 8.46 8.39 11.34 2.77l37.52-73.37c2.25-4-.95-8.87-5.51-8.39ZM1967.83 824.93l43.27-8.42c1.41-.27 2.27 1.49 1.19 2.44l-35.32 30.72c-3.61 2.99-9.09 1.29-10.38-3.22l-3.93-13.79c-1.02-3.62 1.44-7.29 5.17-7.73Z"/><path class="cls-8" d="M178.23 873.91c-14.88-.76-27.11 11.47-26.36 26.35.64 12.74 11 23.1 23.74 23.75 14.89.76 27.11-11.47 26.36-26.36-.65-12.74-11-23.1-23.75-23.75Z"/><path class="cls-5" d="m157.3 875.16-4.03.94c-1.85.43-3.79-.2-5.03-1.65l-16.43-19.28c-1.67-1.96.7-4.76 2.91-3.42l23.99 14.48c3.75 2.26 2.86 7.94-1.41 8.94ZM142.07 911.91l-12.57 5.12c-4.93 2.01-4.99 8.97-.1 11.07l21.73 9.31c5.42 2.32 10.59-3.75 7.43-8.73l-9.16-14.43a5.992 5.992 0 0 0-7.33-2.34ZM130.28 933.09l13.75 6.13c5.14 2.29 4.58 9.76-.84 11.26l-18.38 5.08c-4.81 1.33-9.05-3.46-7.14-8.07l4.63-11.21c1.29-3.12 4.9-4.56 7.99-3.19ZM203.56 857.57l154.96 33.56c5.2 1.13 6.47 7.96 2.02 10.88l-32.68 21.47a6.001 6.001 0 0 1-6.03.33l-119.99-61.44c-2.67-1.37-1.22-5.43 1.71-4.79ZM197.17 868.91l53.75 25.75c3.68 1.76 4.56 6.61 1.74 9.56l-5.99 6.25a5.986 5.986 0 0 1-8.2.43l-44.29-37.37c-2.49-2.1.05-6.03 2.99-4.63ZM249.98 856.15l86.08-20.52c2.96-.71 5.98.92 7.03 3.78l12.79 35.05c1.62 4.43-2.28 8.91-6.89 7.92l-98.94-21.12c-2.73-.58-2.78-4.46-.06-5.11Z"/><path d="M213.51 238.35h-2.39l-4-6.06v6.06h-2.39v-9.83h2.39l4 6.09v-6.09h2.39v9.83ZM222.54 228.52v9.83h-2.39v-9.83h2.39ZM231.57 228.52v9.83h-2.39v-9.83h2.39ZM244.73 231.63c-.18-.33-.43-.58-.76-.75-.33-.17-.72-.26-1.17-.26-.77 0-1.4.25-1.86.76-.47.51-.7 1.19-.7 2.04 0 .91.25 1.61.73 2.12.49.51 1.16.76 2.02.76.59 0 1.09-.15 1.49-.45.41-.3.7-.73.89-1.29h-3.04v-1.76h5.21v2.22c-.18.6-.48 1.15-.9 1.67-.42.51-.96.93-1.62 1.25-.65.32-1.39.48-2.21.48-.97 0-1.84-.21-2.6-.64s-1.35-1.02-1.78-1.77c-.42-.76-.64-1.62-.64-2.59s.21-1.84.64-2.6c.42-.76 1.01-1.35 1.77-1.78.76-.42 1.62-.64 2.59-.64 1.18 0 2.17.29 2.98.85.81.57 1.34 1.36 1.6 2.37h-2.65ZM259.89 236.62h-3.67l-.59 1.74h-2.51l3.56-9.83h2.77l3.56 9.83h-2.53l-.59-1.74Zm-.62-1.85-1.22-3.6-1.2 3.6h2.42ZM276.06 228.52v1.92h-2.6v7.91h-2.39v-7.91h-2.6v-1.92h7.6ZM288.28 236.62h-3.67l-.59 1.74h-2.51l3.56-9.83h2.77l3.56 9.83h-2.53l-.59-1.74Zm-.62-1.85-1.22-3.6-1.2 3.6h2.42ZM399.81 787.26h-1.92v-2.6h-7.91v-2.39h7.91v-2.6h1.92v7.6ZM390.53 795.47c.43-.77 1.03-1.38 1.8-1.83.77-.45 1.64-.68 2.6-.68s1.82.23 2.59.68c.76.45 1.36 1.06 1.79 1.83.43.77.64 1.62.64 2.54s-.21 1.77-.64 2.54c-.43.77-1.03 1.38-1.79 1.82-.77.44-1.63.67-2.59.67s-1.83-.22-2.6-.67c-.77-.45-1.37-1.05-1.8-1.82s-.64-1.61-.64-2.53.21-1.77.64-2.54Zm2.32 4.42c.52.47 1.21.71 2.07.71s1.56-.24 2.08-.71.78-1.1.78-1.88-.26-1.43-.77-1.9-1.21-.71-2.09-.71-1.56.24-2.08.71-.78 1.1-.78 1.9.26 1.41.78 1.88ZM399.81 816.34h-1.92v-2.6h-7.91v-2.39h7.91v-2.6h1.92v7.6ZM399.81 829.51h-1.92v-2.6h-7.91v-2.39h7.91v-2.6h1.92v7.6ZM390.53 837.72c.43-.77 1.03-1.38 1.8-1.83.77-.45 1.64-.68 2.6-.68s1.82.23 2.59.68c.76.45 1.36 1.06 1.79 1.83.43.77.64 1.62.64 2.54s-.21 1.77-.64 2.54c-.43.77-1.03 1.38-1.79 1.82-.77.44-1.63.67-2.59.67s-1.83-.22-2.6-.67c-.77-.45-1.37-1.05-1.8-1.82s-.64-1.61-.64-2.53.21-1.77.64-2.54Zm2.32 4.42c.52.47 1.21.71 2.07.71s1.56-.24 2.08-.71.78-1.1.78-1.88-.26-1.43-.77-1.9-1.21-.71-2.09-.71-1.56.24-2.08.71-.78 1.1-.78 1.9.26 1.41.78 1.88ZM389.98 856.53l3.71-2.04v-.57h-3.71v-2.39h9.83v4.02c0 .77-.14 1.43-.41 1.98-.27.55-.64.96-1.11 1.22-.47.27-1 .41-1.57.41-.65 0-1.24-.18-1.75-.55-.51-.37-.88-.91-1.09-1.63l-3.89 2.27v-2.7Zm5.4-2.62v1.48c0 .44.11.77.32.99s.52.33.91.33.67-.11.88-.33.32-.55.32-.99v-1.48h-2.44ZM399.81 867.94h-9.83v-2.39h9.83v2.39Z"/><g><path d="M1156.65 173.77h-1.92v-2.6h-7.91v-2.39h7.91v-2.6h1.92v7.6ZM1147.37 181.98c.43-.77 1.03-1.38 1.8-1.83.77-.45 1.64-.68 2.6-.68s1.82.23 2.59.68c.76.45 1.36 1.06 1.79 1.83.43.77.64 1.62.64 2.54s-.21 1.77-.64 2.54c-.43.77-1.03 1.38-1.79 1.82-.77.44-1.63.67-2.59.67s-1.83-.22-2.6-.67c-.77-.45-1.37-1.05-1.8-1.82s-.64-1.61-.64-2.53.21-1.77.64-2.54Zm2.32 4.42c.52.47 1.21.71 2.07.71s1.56-.24 2.08-.71.78-1.1.78-1.88-.26-1.43-.77-1.9-1.21-.71-2.09-.71-1.56.24-2.08.71-.78 1.1-.78 1.9.26 1.41.78 1.88ZM1146.82 201.47l4.34-3.3h-4.34v-2.39h9.83v2.39h-4.31l4.31 3.28v2.81l-4.82-3.81-5.01 3.95v-2.93ZM1156.65 218.86l-6.58-3.4h-3.25v-2.39h3.25l6.58-3.4v2.72l-4.12 1.9 4.12 1.89v2.69ZM1147.37 226.83c.43-.77 1.03-1.38 1.8-1.83.77-.45 1.64-.68 2.6-.68s1.82.23 2.59.68c.76.45 1.36 1.06 1.79 1.83.43.77.64 1.62.64 2.54s-.21 1.77-.64 2.54c-.43.77-1.03 1.38-1.79 1.82-.77.44-1.63.67-2.59.67s-1.83-.22-2.6-.67c-.77-.45-1.37-1.05-1.8-1.82s-.64-1.61-.64-2.53.21-1.77.64-2.54Zm2.32 4.42c.52.47 1.21.71 2.07.71s1.56-.24 2.08-.71.78-1.1.78-1.88-.26-1.43-.77-1.9-1.21-.71-2.09-.71-1.56.24-2.08.71-.78 1.1-.78 1.9.26 1.41.78 1.88Z"/></g><g><path d="m2140.76 150.83 4.34-3.3h-4.34v-2.39h9.83v2.39h-4.31l4.31 3.28v2.81l-4.82-3.81-5.01 3.95v-2.93ZM2142.49 165.91v-3.67l-1.74-.59v-2.51l9.83 3.55v2.77l-9.83 3.56v-2.53l1.74-.59Zm1.85-.62 3.6-1.22-3.6-1.2v2.42ZM2140.76 183.8v-2.39l6.06-4h-6.06v-2.39h9.83v2.39l-6.09 4h6.09v2.39h-9.83ZM2142.49 196.55v-3.67l-1.74-.59v-2.51l9.83 3.56v2.77l-9.83 3.56v-2.53l1.74-.59Zm1.85-.62 3.6-1.22-3.6-1.2v2.42ZM2147.48 212.18c.33-.18.58-.43.75-.76s.26-.72.26-1.17c0-.78-.25-1.4-.76-1.86-.51-.47-1.19-.7-2.04-.7-.91 0-1.61.25-2.12.74s-.76 1.17-.76 2.02c0 .59.15 1.09.45 1.49s.73.7 1.29.89v-3.04h1.76V215h-2.23c-.6-.18-1.15-.48-1.67-.9-.51-.43-.93-.96-1.25-1.62-.32-.65-.48-1.39-.48-2.21 0-.97.21-1.84.64-2.6.42-.76 1.01-1.35 1.77-1.78.76-.42 1.62-.64 2.59-.64s1.84.21 2.6.64c.76.42 1.35 1.02 1.78 1.77s.64 1.62.64 2.59c0 1.18-.29 2.17-.85 2.97-.57.81-1.36 1.34-2.37 1.6v-2.65ZM2142.49 227.34v-3.67l-1.74-.59v-2.51l9.83 3.56v2.77l-9.83 3.56v-2.53l1.74-.59Zm1.85-.62 3.6-1.22-3.6-1.2v2.42ZM2150.59 249.96l-9.83-2.56v-2.9l6.47-1.57-6.47-1.62v-2.9l9.83-2.49v2.56l-7.15 1.41 7.15 1.75v2.63l-7.15 1.68 7.15 1.43v2.58ZM2142.49 262.19v-3.67l-1.74-.59v-2.51l9.83 3.56v2.77l-9.83 3.56v-2.53l1.74-.59Zm1.85-.62 3.6-1.22-3.6-1.2v2.42Z"/></g><g><path d="M1020.36 903.51a4.793 4.793 0 0 1-1.83-1.8c-.45-.77-.68-1.63-.68-2.6s.23-1.82.68-2.59c.45-.76 1.06-1.36 1.83-1.79.77-.43 1.62-.64 2.54-.64s1.77.21 2.54.64c.77.43 1.38 1.03 1.82 1.79.44.77.67 1.63.67 2.59s-.22 1.83-.67 2.6-1.05 1.37-1.82 1.8c-.76.43-1.61.64-2.53.64s-1.77-.21-2.54-.64Zm4.42-2.32c.47-.52.71-1.21.71-2.07s-.24-1.56-.71-2.08-1.1-.78-1.88-.78-1.43.26-1.9.77-.71 1.21-.71 2.09.24 1.56.71 2.08 1.1.78 1.9.78 1.41-.26 1.88-.79ZM1035.78 903.8c-.57-.23-1.02-.58-1.37-1.04s-.52-1.01-.54-1.65h2.55c.04.37.16.64.38.83s.5.29.84.29.63-.08.84-.25c.21-.16.31-.39.31-.68 0-.24-.08-.44-.25-.6-.16-.16-.36-.29-.6-.39-.24-.1-.58-.22-1.01-.35-.63-.2-1.15-.39-1.55-.59-.4-.2-.75-.49-1.04-.87s-.43-.88-.43-1.5c0-.91.33-1.63.99-2.15.66-.52 1.53-.78 2.59-.78s1.96.26 2.62.78c.66.52 1.02 1.24 1.06 2.16h-2.59c-.02-.32-.14-.57-.35-.75s-.49-.27-.83-.27c-.29 0-.52.08-.7.23-.18.15-.27.38-.27.67 0 .32.15.56.45.74s.77.37 1.4.57c.63.21 1.15.42 1.55.62.4.2.74.48 1.03.85.29.38.43.86.43 1.44s-.14 1.07-.43 1.53c-.29.46-.7.82-1.24 1.09-.54.27-1.18.41-1.92.41s-1.36-.12-1.93-.35ZM1053.79 902.32h-3.67l-.59 1.74h-2.51l3.56-9.83h2.77l3.56 9.83h-2.53l-.59-1.74Zm-.62-1.85-1.22-3.6-1.2 3.6h2.42ZM1068.59 904.06l-3.3-4.34v4.34h-2.39v-9.83h2.39v4.31l3.28-4.31h2.81l-3.81 4.82 3.95 5.01h-2.93ZM1083.66 902.32h-3.67l-.59 1.74h-2.51l3.56-9.83h2.77l3.56 9.83h-2.53l-.59-1.74Zm-.62-1.85-1.22-3.6-1.2 3.6h2.42Z"/></g><g><path d="M1523.48 432.28v1.92h-4v2.07h3v1.86h-3v3.97h-2.39v-9.83h6.4ZM1531.99 432.28v5.88c0 .59.14 1.04.43 1.36.29.32.71.48 1.27.48s.99-.16 1.29-.48c.3-.32.45-.77.45-1.36v-5.88h2.39v5.87c0 .88-.19 1.62-.56 2.22a3.6 3.6 0 0 1-1.5 1.37c-.63.31-1.33.46-2.11.46s-1.47-.15-2.08-.46c-.61-.3-1.09-.76-1.45-1.37s-.53-1.36-.53-2.23v-5.87h2.39ZM1550.11 442.11l-3.3-4.34v4.34h-2.39v-9.83h2.39v4.31l3.28-4.31h2.81l-3.81 4.82 3.95 5.01h-2.93ZM1561.42 432.28v5.88c0 .59.14 1.04.43 1.36.29.32.71.48 1.27.48s.99-.16 1.29-.48c.3-.32.45-.77.45-1.36v-5.88h2.39v5.87c0 .88-.19 1.62-.56 2.22a3.6 3.6 0 0 1-1.5 1.37c-.63.31-1.33.46-2.11.46s-1.47-.15-2.08-.46c-.61-.3-1.09-.76-1.45-1.37s-.53-1.36-.53-2.23v-5.87h2.39ZM1575.46 441.86c-.57-.23-1.02-.58-1.37-1.04s-.52-1.01-.54-1.65h2.55c.04.36.16.64.38.83.21.19.5.29.84.29s.63-.08.84-.24c.21-.16.31-.39.31-.68 0-.24-.08-.44-.25-.6s-.36-.29-.6-.39c-.24-.1-.58-.22-1.01-.35-.63-.2-1.15-.39-1.55-.59s-.75-.48-1.04-.87-.43-.88-.43-1.5c0-.92.33-1.63.99-2.15.66-.52 1.53-.78 2.59-.78s1.96.26 2.62.78c.66.52 1.02 1.24 1.06 2.16h-2.59c-.02-.32-.14-.57-.35-.75-.21-.18-.49-.27-.83-.27-.29 0-.52.08-.7.23-.18.15-.27.38-.27.66 0 .32.15.57.45.74.3.18.77.37 1.4.57.63.21 1.15.42 1.55.62.4.2.74.48 1.03.85.29.37.43.85.43 1.44s-.14 1.07-.43 1.53c-.29.46-.7.82-1.24 1.09-.54.27-1.18.4-1.92.4s-1.36-.12-1.93-.35ZM1595.86 432.28v9.83h-2.39v-4.04h-3.72v4.04h-2.39v-9.83h2.39v3.85h3.72v-3.85h2.39ZM1604.87 432.28v9.83h-2.39v-9.83h2.39ZM1622.64 432.28v9.83h-2.39v-5.89l-2.2 5.89h-1.93l-2.21-5.91v5.91h-2.39v-9.83h2.83l2.76 6.8 2.73-6.8h2.81ZM1635.38 440.37h-3.67l-.59 1.74h-2.51l3.56-9.83h2.77l3.56 9.83h-2.53l-.59-1.74Zm-.62-1.85-1.22-3.6-1.2 3.6h2.42Z"/></g><path class="cls-7" d="m698.2 938.46-14.86 6.78c-2.4 1.09-1.62 4.68 1.02 4.68h29.72c2.63 0 3.41-3.59 1.02-4.68l-14.86-6.78c-.65-.29-1.39-.29-2.03 0ZM652.15 938.46l-14.86 6.78c-2.4 1.09-1.62 4.68 1.02 4.68h29.72c2.63 0 3.41-3.59 1.02-4.68l-14.86-6.78c-.65-.29-1.39-.29-2.03 0ZM566.9 938.46l-14.86 6.78c-2.4 1.09-1.62 4.68 1.02 4.68h29.72c2.63 0 3.41-3.59 1.02-4.68l-14.86-6.78c-.65-.29-1.39-.29-2.03 0ZM454.72 938.46l-14.86 6.78c-2.4 1.09-1.62 4.68 1.02 4.68h29.72c2.63 0 3.41-3.59 1.02-4.68l-14.86-6.78c-.65-.29-1.39-.29-2.03 0Z"/><path class="cls-7" d="M726.86 938.46 712 945.24c-2.4 1.09-1.62 4.68 1.02 4.68h29.72c2.63 0 3.41-3.59 1.02-4.68l-14.86-6.78c-.65-.29-1.39-.29-2.03 0Z"/><path class="cls-9" d="M84.15 72.98 70.33 85c-3.21 2.8-1.24 8.08 3.02 8.08H101c4.26 0 6.24-5.29 3.02-8.08L90.2 72.98a4.606 4.606 0 0 0-6.05 0Z"/><path class="cls-9" d="M112.81 72.98 98.99 85c-3.21 2.8-1.24 8.08 3.02 8.08h27.65c4.26 0 6.24-5.29 3.02-8.08l-13.82-12.02a4.606 4.606 0 0 0-6.05 0ZM1080.55 508.35l-17.65 30.58c-1.89 3.27.47 7.35 4.24 7.35h35.31c3.77 0 6.13-4.08 4.24-7.35l-17.65-30.58c-1.89-3.27-6.6-3.27-8.49 0Z"/><path d="m1045.27 508.35-17.65 30.58c-1.89 3.27.47 7.35 4.24 7.35h35.31c3.77 0 6.13-4.08 4.24-7.35l-17.65-30.58c-1.89-3.27-6.6-3.27-8.49 0Z" style="fill:#c26655"/><path class="cls-9" d="m1115.83 508.35-17.65 30.58c-1.89 3.27.47 7.35 4.24 7.35h35.31c3.77 0 6.13-4.08 4.24-7.35l-17.65-30.58c-1.89-3.27-6.6-3.27-8.49 0Z"/><path class="cls-13" d="m702.09 100.8-17.65 30.58c-1.89 3.27.47 7.35 4.24 7.35h35.31c3.77 0 6.13-4.08 4.24-7.35l-17.65-30.58c-1.89-3.27-6.6-3.27-8.49 0Z"/><path class="cls-13" d="m666.81 100.8-17.65 30.58c-1.89 3.27.47 7.35 4.24 7.35h35.31c3.77 0 6.13-4.08 4.24-7.35L675.3 100.8c-1.89-3.27-6.6-3.27-8.49 0Z"/><path d="m737.36 100.8-17.65 30.58c-1.89 3.27.47 7.35 4.24 7.35h35.31c3.77 0 6.13-4.08 4.24-7.35l-17.65-30.58c-1.89-3.27-6.6-3.27-8.49 0Z" style="fill:#6dce97"/><g><g id="_Grid_Repeat_"><path d="M679.43 84.96c-.26.47-.66.85-1.2 1.14-.54.29-1.21.43-2.02.43h-1.48v3.53h-2.39v-9.83h3.88c.78 0 1.45.13 1.99.41.54.27.95.64 1.22 1.12s.41 1.02.41 1.64c0 .57-.13 1.09-.39 1.56Zm-2.38-.65c.22-.21.34-.52.34-.91s-.11-.7-.34-.91c-.22-.21-.56-.32-1.02-.32h-1.3v2.46h1.3c.46 0 .8-.11 1.02-.32ZM690.98 90.06l-2.04-3.71h-.57v3.71h-2.39v-9.83H690c.77 0 1.43.13 1.98.41.55.27.95.64 1.22 1.11.27.47.41 1 .41 1.57 0 .65-.18 1.24-.55 1.75-.37.51-.91.88-1.63 1.09l2.27 3.89H691Zm-2.62-5.4h1.48c.44 0 .77-.11.99-.32.22-.21.33-.52.33-.91s-.11-.67-.33-.88c-.22-.21-.55-.32-.99-.32h-1.48v2.44ZM702.39 80.24v9.83H700v-9.83h2.39ZM711.57 88.1h4.23v1.96h-6.94v-1.82l4.2-6.05h-4.2v-1.96h6.94v1.82l-4.23 6.05ZM733.4 80.24v9.83h-2.39v-5.89l-2.2 5.89h-1.93l-2.21-5.91v5.91h-2.39v-9.83h2.83l2.76 6.8 2.73-6.8h2.81Z"/></g><g id="_Grid_Repeat_-2"><path d="M766.79 84.96c-.26.47-.66.85-1.2 1.14s-1.21.43-2.02.43h-1.48v3.53h-2.39v-9.83h3.88c.78 0 1.45.13 1.99.41.54.27.95.64 1.22 1.12.27.48.41 1.02.41 1.64 0 .57-.13 1.09-.39 1.56Zm-2.38-.65c.22-.21.34-.52.34-.91s-.11-.7-.34-.91c-.22-.21-.57-.32-1.02-.32h-1.3v2.46h1.3c.46 0 .8-.11 1.02-.32ZM778.34 90.06l-2.04-3.71h-.57v3.71h-2.39v-9.83h4.02c.77 0 1.43.13 1.98.41.55.27.95.64 1.22 1.11.27.47.41 1 .41 1.57 0 .65-.18 1.24-.55 1.75-.37.51-.91.88-1.63 1.09l2.27 3.89h-2.7Zm-2.62-5.4h1.48c.44 0 .77-.11.99-.32.22-.21.33-.52.33-.91s-.11-.67-.33-.88c-.22-.21-.55-.32-.99-.32h-1.48v2.44ZM789.75 80.24v9.83h-2.39v-9.83h2.39ZM798.93 88.1h4.23v1.96h-6.94v-1.82l4.2-6.05h-4.2v-1.96h6.94v1.82l-4.23 6.05ZM820.76 80.24v9.83h-2.39v-5.89l-2.2 5.89h-1.93l-2.21-5.91v5.91h-2.39v-9.83h2.83l2.76 6.8 2.73-6.8h2.81Z"/></g><g id="_Grid_Repeat_-3"><path d="M705.38 118.3c-.26.47-.66.85-1.2 1.14s-1.21.43-2.02.43h-1.48v3.53h-2.39v-9.83h3.88c.78 0 1.45.13 1.99.41.54.27.95.64 1.22 1.12.27.48.41 1.02.41 1.64 0 .57-.13 1.09-.39 1.56Zm-2.38-.65c.22-.21.34-.52.34-.91s-.11-.7-.34-.91c-.22-.21-.57-.32-1.02-.32h-1.3v2.46h1.3c.46 0 .8-.11 1.02-.32ZM716.93 123.4l-2.04-3.71h-.57v3.71h-2.39v-9.83h4.02c.77 0 1.43.13 1.98.41.55.27.95.64 1.22 1.11.27.47.41 1 .41 1.57 0 .65-.18 1.24-.55 1.75-.37.51-.91.88-1.63 1.09l2.27 3.89h-2.7Zm-2.62-5.4h1.48c.44 0 .77-.11.99-.32.22-.21.33-.52.33-.91s-.11-.67-.33-.88c-.22-.21-.55-.32-.99-.32h-1.48v2.44ZM728.34 113.57v9.83h-2.39v-9.83h2.39ZM737.53 121.44h4.23v1.96h-6.94v-1.82l4.2-6.05h-4.2v-1.96h6.94v1.82l-4.23 6.05ZM759.35 113.57v9.83h-2.39v-5.89l-2.2 5.89h-1.93l-2.21-5.91v5.91h-2.39v-9.83h2.83l2.76 6.8 2.73-6.8h2.81Z"/></g><g id="_Grid_Repeat_-4"><path d="M792.74 118.3c-.26.47-.66.85-1.2 1.14-.54.29-1.21.43-2.02.43h-1.48v3.53h-2.39v-9.83h3.88c.78 0 1.45.13 1.99.41.54.27.95.64 1.22 1.12.27.48.41 1.02.41 1.64 0 .57-.13 1.09-.39 1.56Zm-2.38-.65c.22-.21.34-.52.34-.91s-.11-.7-.34-.91-.56-.32-1.02-.32h-1.3v2.46h1.3c.46 0 .8-.11 1.02-.32ZM804.29 123.4l-2.04-3.71h-.57v3.71h-2.39v-9.83h4.02c.77 0 1.43.13 1.98.41.55.27.95.64 1.22 1.11.27.47.41 1 .41 1.57 0 .65-.18 1.24-.55 1.75s-.91.88-1.63 1.09l2.27 3.89h-2.7Zm-2.62-5.4h1.48c.44 0 .77-.11.99-.32s.33-.52.33-.91-.11-.67-.33-.88-.55-.32-.99-.32h-1.48v2.44ZM815.7 113.57v9.83h-2.39v-9.83h2.39ZM824.89 121.44h4.23v1.96h-6.94v-1.82l4.2-6.05h-4.2v-1.96h6.94v1.82l-4.23 6.05ZM846.71 113.57v9.83h-2.39v-5.89l-2.2 5.89h-1.93l-2.21-5.91v5.91h-2.39v-9.83h2.83l2.76 6.8 2.73-6.8h2.81Z"/></g></g><path class="cls-2" d="M1810.98 517.42 1793.33 548c-1.89 3.27.47 7.35 4.24 7.35h35.31c3.77 0 6.13-4.08 4.24-7.35l-17.65-30.58c-1.89-3.27-6.6-3.27-8.49 0Z"/><path d="M1775.71 517.42 1758.06 548c-1.89 3.27.47 7.35 4.24 7.35h35.31c3.77 0 6.13-4.08 4.24-7.35l-17.65-30.58c-1.89-3.27-6.6-3.27-8.49 0Z" style="fill:#ed9489"/><path class="cls-2" d="M1905.79 517.42 1888.14 548c-1.89 3.27.47 7.35 4.24 7.35h35.31c3.77 0 6.13-4.08 4.24-7.35l-17.65-30.58c-1.89-3.27-6.6-3.27-8.49 0ZM2094.25 517.42 2076.6 548c-1.89 3.27.47 7.35 4.24 7.35h35.31c3.77 0 6.13-4.08 4.24-7.35l-17.65-30.58c-1.89-3.27-6.6-3.27-8.49 0Z"/><path class="cls-3" d="m1398.84 107.66-17.65 30.58c-1.89 3.27.47 7.35 4.24 7.35h35.31c3.77 0 6.13-4.08 4.24-7.35l-17.65-30.58c-1.89-3.27-6.6-3.27-8.49 0Z"/><path class="cls-3" d="m1363.57 107.66-17.65 30.58c-1.89 3.27.47 7.35 4.24 7.35h35.31c3.77 0 6.13-4.08 4.24-7.35l-17.65-30.58c-1.89-3.27-6.6-3.27-8.49 0ZM1434.12 107.66l-17.65 30.58c-1.89 3.27.47 7.35 4.24 7.35h35.31c3.77 0 6.13-4.08 4.24-7.35l-17.65-30.58c-1.89-3.27-6.6-3.27-8.49 0Z"/><path class="cls-5" d="m1778.16 117.15-19.19 45.31c-1.29 3.04.94 6.4 4.24 6.4h38.37c3.3 0 5.53-3.37 4.24-6.4l-19.19-45.31c-1.59-3.75-6.9-3.75-8.48 0ZM1831.12 85.94l-19.19 45.31c-1.29 3.04.94 6.4 4.24 6.4h38.37c3.3 0 5.53-3.37 4.24-6.4l-19.19-45.31c-1.59-3.75-6.9-3.75-8.48 0Z"/><g><g id="_Grid_Repeat_-5"><path d="M1730.54 77.35c-.26.47-.66.85-1.2 1.14s-1.21.43-2.02.43h-1.48v3.53h-2.39v-9.83h3.88c.78 0 1.45.14 1.99.41.54.27.95.64 1.22 1.12.27.48.41 1.02.41 1.64 0 .57-.13 1.09-.39 1.56Zm-2.38-.65c.22-.21.34-.52.34-.91s-.11-.7-.34-.91c-.22-.21-.57-.32-1.02-.32h-1.3v2.46h1.3c.46 0 .8-.11 1.02-.32ZM1742.09 82.45l-2.04-3.71h-.57v3.71h-2.39v-9.83h4.02c.77 0 1.43.14 1.98.41.55.27.95.64 1.22 1.11.27.47.41 1 .41 1.57 0 .65-.18 1.24-.55 1.75-.37.51-.91.88-1.63 1.09l2.27 3.89h-2.7Zm-2.62-5.4h1.48c.44 0 .77-.11.99-.32.22-.21.33-.52.33-.91s-.11-.67-.33-.88c-.22-.21-.55-.32-.99-.32h-1.48v2.44ZM1753.5 72.62v9.83h-2.39v-9.83h2.39ZM1762.68 80.49h4.23v1.96h-6.94v-1.82l4.2-6.05h-4.2v-1.96h6.94v1.82l-4.23 6.05ZM1784.51 72.62v9.83h-2.39v-5.89l-2.2 5.89h-1.93l-2.21-5.91v5.91h-2.39v-9.83h2.83l2.76 6.8 2.73-6.8h2.81Z"/></g><g id="_Grid_Repeat_-6"><path d="M1740.54 110.69c-.26.47-.66.85-1.2 1.14s-1.21.43-2.02.43h-1.48v3.53h-2.39v-9.83h3.88c.78 0 1.45.14 1.99.41.54.27.95.64 1.22 1.12.27.48.41 1.02.41 1.64 0 .57-.13 1.09-.39 1.56Zm-2.38-.65c.22-.21.34-.52.34-.91s-.11-.7-.34-.91c-.22-.21-.57-.32-1.02-.32h-1.3v2.46h1.3c.46 0 .8-.11 1.02-.32ZM1752.09 115.79l-2.04-3.71h-.57v3.71h-2.39v-9.83h4.02c.77 0 1.43.14 1.98.41.55.27.95.64 1.22 1.11.27.47.41 1 .41 1.57 0 .65-.18 1.24-.55 1.75-.37.51-.91.88-1.63 1.09l2.27 3.89h-2.7Zm-2.62-5.4h1.48c.44 0 .77-.11.99-.32.22-.21.33-.52.33-.91s-.11-.67-.33-.88c-.22-.21-.55-.32-.99-.32h-1.48v2.44ZM1763.5 105.96v9.83h-2.39v-9.83h2.39ZM1772.68 113.83h4.23v1.96h-6.94v-1.82l4.2-6.05h-4.2v-1.96h6.94v1.82l-4.23 6.05ZM1794.51 105.96v9.83h-2.39v-5.89l-2.2 5.89h-1.93l-2.21-5.91v5.91h-2.39v-9.83h2.83l2.76 6.8 2.73-6.8h2.81Z"/></g><g id="_Grid_Repeat_-7"><path d="M1750.54 144.02c-.26.47-.66.85-1.2 1.14s-1.21.43-2.02.43h-1.48v3.53h-2.39v-9.83h3.88c.78 0 1.45.14 1.99.41.54.27.95.64 1.22 1.12.27.48.41 1.02.41 1.64 0 .57-.13 1.09-.39 1.56Zm-2.38-.65c.22-.21.34-.52.34-.91s-.11-.7-.34-.91c-.22-.21-.57-.32-1.02-.32h-1.3v2.46h1.3c.46 0 .8-.11 1.02-.32ZM1762.09 149.12l-2.04-3.71h-.57v3.71h-2.39v-9.83h4.02c.77 0 1.43.14 1.98.41.55.27.95.64 1.22 1.11.27.47.41 1 .41 1.57 0 .65-.18 1.24-.55 1.75-.37.51-.91.88-1.63 1.09l2.27 3.89h-2.7Zm-2.62-5.4h1.48c.44 0 .77-.11.99-.32.22-.21.33-.52.33-.91s-.11-.67-.33-.88c-.22-.21-.55-.32-.99-.32h-1.48v2.44ZM1773.5 139.3v9.83h-2.39v-9.83h2.39ZM1782.68 147.16h4.23v1.96h-6.94v-1.82l4.2-6.05h-4.2v-1.96h6.94v1.82l-4.23 6.05ZM1804.51 139.3v9.83h-2.39v-5.89l-2.2 5.89h-1.93l-2.21-5.91v5.91h-2.39v-9.83h2.83l2.76 6.8 2.73-6.8h2.81Z"/></g></g><path class="cls-4" d="m1604.9 862.85-17.65 30.58c-1.89 3.27.47 7.35 4.24 7.35h35.31c3.77 0 6.13-4.08 4.24-7.35l-17.65-30.58c-1.89-3.27-6.6-3.27-8.49 0Z"/><path class="cls-12" d="m1185.26 929.14-13.82 12.02c-3.21 2.8-1.24 8.08 3.02 8.08h27.65c4.26 0 6.24-5.29 3.02-8.08l-13.82-12.02a4.606 4.606 0 0 0-6.05 0Z"/><path class="cls-12" d="m1213.92 929.14-13.82 12.02c-3.21 2.8-1.24 8.08 3.02 8.08h27.65c4.26 0 6.24-5.29 3.02-8.08l-13.82-12.02a4.606 4.606 0 0 0-6.05 0Z"/><path class="cls-12" d="m1242.58 929.14-13.82 12.02c-3.21 2.8-1.24 8.08 3.02 8.08h27.65c4.26 0 6.24-5.29 3.02-8.08l-13.82-12.02a4.606 4.606 0 0 0-6.05 0Z"/><path class="cls-13" d="m2212.7 406.01-13.82 12.02c-3.21 2.8-1.24 8.08 3.02 8.08h27.65c4.26 0 6.24-5.29 3.02-8.08l-13.82-12.02a4.606 4.606 0 0 0-6.05 0Z"/><path class="cls-13" d="m2241.36 406.01-13.82 12.02c-3.21 2.8-1.24 8.08 3.02 8.08h27.65c4.26 0 6.24-5.29 3.02-8.08l-13.82-12.02a4.606 4.606 0 0 0-6.05 0Z"/><path class="cls-14" d="m2274.89 929.14-13.82 12.02c-3.21 2.8-1.24 8.08 3.02 8.08h27.65c4.26 0 6.24-5.29 3.02-8.08l-13.82-12.02a4.606 4.606 0 0 0-6.05 0ZM2346.58 929.14l-13.82 12.02c-3.21 2.8-1.24 8.08 3.02 8.08h27.65c4.26 0 6.24-5.29 3.02-8.08l-13.82-12.02a4.606 4.606 0 0 0-6.05 0Z"/><g><path d="M2099.93 490.38c-.26.47-.66.85-1.2 1.14-.54.29-1.21.43-2.02.43h-1.48v3.53h-2.39v-9.83h3.88c.78 0 1.45.13 1.99.41.54.27.95.64 1.22 1.12.27.48.41 1.02.41 1.64 0 .57-.13 1.09-.39 1.56Zm-2.38-.65c.22-.21.34-.52.34-.91s-.11-.7-.34-.91-.57-.32-1.02-.32h-1.3v2.46h1.3c.46 0 .8-.11 1.02-.32ZM2111.48 495.48l-2.04-3.71h-.57v3.71h-2.39v-9.83h4.02c.77 0 1.43.13 1.98.41.55.27.95.64 1.22 1.11.27.47.41 1 .41 1.57 0 .65-.18 1.24-.55 1.75-.37.51-.91.88-1.63 1.09l2.27 3.89h-2.7Zm-2.62-5.4h1.48c.44 0 .77-.11.99-.32.22-.21.33-.52.33-.91s-.11-.67-.33-.88c-.22-.21-.55-.32-.99-.32h-1.48v2.44ZM2122.89 487.57v1.99h3.21v1.85h-3.21v2.16h3.63v1.92h-6.02v-9.83h6.02v1.92h-3.63ZM2139.36 485.65v1.92h-4v2.07h3v1.86h-3v3.98h-2.39v-9.83h6.4ZM2147.92 487.57v1.99h3.21v1.85h-3.21v2.16h3.62v1.92h-6.02v-9.83h6.02v1.92h-3.62ZM2158.22 487.95c.42-.76 1.01-1.35 1.76-1.78.75-.43 1.6-.64 2.55-.64 1.17 0 2.17.31 3 .93.83.62 1.39 1.46 1.67 2.52h-2.63c-.2-.41-.47-.72-.83-.94s-.77-.32-1.22-.32c-.74 0-1.34.26-1.79.77s-.69 1.2-.69 2.06.23 1.54.69 2.06c.46.51 1.05.77 1.79.77.46 0 .87-.11 1.22-.32s.64-.53.83-.94h2.63c-.28 1.06-.84 1.9-1.67 2.51s-1.83.92-3 .92c-.95 0-1.8-.21-2.55-.64a4.473 4.473 0 0 1-1.76-1.77c-.42-.76-.63-1.62-.63-2.59s.21-1.84.63-2.6ZM2180.64 485.65v1.92h-2.6v7.91h-2.39v-7.91h-2.6v-1.92h7.6ZM2189.09 485.65v5.88c0 .59.14 1.04.43 1.36.29.32.71.47 1.27.47s.99-.16 1.29-.47c.3-.32.45-.77.45-1.36v-5.88h2.39v5.87c0 .88-.19 1.62-.56 2.23s-.88 1.06-1.5 1.37c-.63.31-1.33.46-2.11.46s-1.47-.15-2.08-.46-1.09-.76-1.45-1.37c-.35-.61-.53-1.36-.53-2.23v-5.87h2.39ZM2206.52 495.48l-2.04-3.71h-.57v3.71h-2.39v-9.83h4.02c.77 0 1.43.13 1.98.41.55.27.95.64 1.22 1.11.27.47.41 1 .41 1.57 0 .65-.18 1.24-.55 1.75-.37.51-.91.88-1.63 1.09l2.27 3.89h-2.7Zm-2.62-5.4h1.48c.44 0 .77-.11.99-.32.22-.21.33-.52.33-.91s-.11-.67-.33-.88c-.22-.21-.55-.32-.99-.32h-1.48v2.44ZM2221.65 493.74h-3.67l-.59 1.74h-2.51l3.56-9.83h2.77l3.56 9.83h-2.53l-.59-1.74Zm-.62-1.85-1.22-3.6-1.2 3.6h2.42ZM2233.15 493.63h3.14v1.85h-5.53v-9.83h2.39v7.98ZM2099.35 518.76c-.18-.33-.43-.58-.76-.75-.33-.17-.72-.26-1.17-.26-.78 0-1.4.25-1.86.76-.47.51-.7 1.19-.7 2.04 0 .9.25 1.61.74 2.12s1.17.76 2.02.76c.59 0 1.09-.15 1.49-.45s.7-.73.89-1.29h-3.04v-1.76h5.21v2.23c-.18.6-.48 1.15-.9 1.67-.43.51-.96.93-1.62 1.25-.65.32-1.39.48-2.21.48-.97 0-1.84-.21-2.6-.64a4.522 4.522 0 0 1-1.78-1.77c-.42-.76-.64-1.62-.64-2.59s.21-1.84.64-2.6c.42-.76 1.02-1.35 1.77-1.78.76-.43 1.62-.64 2.59-.64 1.18 0 2.17.29 2.97.86.81.57 1.34 1.36 1.6 2.37h-2.65ZM2110.75 515.65v5.88c0 .59.14 1.04.43 1.36.29.32.71.47 1.27.47s.99-.16 1.29-.47c.3-.32.45-.77.45-1.36v-5.88h2.39v5.87c0 .88-.19 1.62-.56 2.23s-.88 1.06-1.5 1.37c-.63.31-1.33.46-2.11.46s-1.47-.15-2.08-.46c-.61-.3-1.09-.76-1.45-1.37s-.53-1.36-.53-2.23v-5.87h2.39ZM2125.56 517.57v1.99h3.21v1.85h-3.21v2.16h3.62v1.92h-6.02v-9.83h6.02v1.92h-3.62ZM2137.26 525.23c-.57-.23-1.02-.58-1.37-1.04s-.52-1.01-.54-1.65h2.55c.04.37.16.64.38.83s.5.29.84.29.63-.08.84-.25c.21-.16.31-.39.31-.68 0-.24-.08-.44-.25-.6-.16-.16-.36-.29-.6-.39-.24-.1-.58-.22-1.01-.35-.63-.2-1.15-.39-1.55-.59-.4-.2-.75-.49-1.04-.87-.29-.38-.43-.88-.43-1.5 0-.91.33-1.63.99-2.15.66-.52 1.53-.78 2.59-.78s1.96.26 2.62.78c.66.52 1.02 1.24 1.06 2.16h-2.59c-.02-.32-.14-.57-.35-.75s-.49-.27-.83-.27c-.29 0-.52.08-.7.23-.18.15-.27.38-.27.67 0 .32.15.56.45.74s.77.37 1.4.57c.63.21 1.15.42 1.55.62s.74.48 1.03.85c.29.38.43.86.43 1.44s-.14 1.07-.43 1.53-.7.82-1.24 1.09c-.54.27-1.18.41-1.92.41s-1.36-.12-1.93-.35ZM2150.77 525.23c-.57-.23-1.02-.58-1.37-1.04s-.52-1.01-.54-1.65h2.55c.04.37.16.64.38.83s.5.29.84.29.63-.08.84-.25c.21-.16.31-.39.31-.68 0-.24-.08-.44-.25-.6-.16-.16-.36-.29-.6-.39-.24-.1-.58-.22-1.01-.35-.63-.2-1.15-.39-1.55-.59-.4-.2-.75-.49-1.04-.87-.29-.38-.43-.88-.43-1.5 0-.91.33-1.63.99-2.15.66-.52 1.53-.78 2.59-.78s1.96.26 2.62.78c.66.52 1.02 1.24 1.06 2.16h-2.59c-.02-.32-.14-.57-.35-.75s-.49-.27-.83-.27c-.29 0-.52.08-.7.23-.18.15-.27.38-.27.67 0 .32.15.56.45.74s.77.37 1.4.57c.63.21 1.15.42 1.55.62s.74.48 1.03.85c.29.38.43.86.43 1.44s-.14 1.07-.43 1.53-.7.82-1.24 1.09c-.54.27-1.18.41-1.92.41s-1.36-.12-1.93-.35ZM2165.05 515.65v9.83h-2.39v-9.83h2.39ZM2180.48 525.48h-2.39l-4-6.06v6.06h-2.39v-9.83h2.39l4 6.09v-6.09h2.39v9.83ZM2193.64 518.76c-.18-.33-.43-.58-.76-.75-.33-.17-.72-.26-1.17-.26-.78 0-1.4.25-1.86.76-.47.51-.7 1.19-.7 2.04 0 .9.25 1.61.74 2.12s1.17.76 2.02.76c.59 0 1.09-.15 1.49-.45s.7-.73.89-1.29h-3.04v-1.76h5.21v2.23c-.18.6-.48 1.15-.9 1.67-.43.51-.96.93-1.62 1.25-.65.32-1.39.48-2.21.48-.97 0-1.84-.21-2.6-.64a4.522 4.522 0 0 1-1.78-1.77c-.42-.76-.64-1.62-.64-2.59s.21-1.84.64-2.6c.42-.76 1.02-1.35 1.77-1.78.76-.43 1.62-.64 2.59-.64 1.18 0 2.17.29 2.97.86.81.57 1.34 1.36 1.6 2.37h-2.65ZM2099.35 548.76c-.18-.33-.43-.58-.76-.75-.33-.17-.72-.26-1.17-.26-.78 0-1.4.25-1.86.76-.47.51-.7 1.19-.7 2.04 0 .9.25 1.61.74 2.12s1.17.76 2.02.76c.59 0 1.09-.15 1.49-.45s.7-.73.89-1.29h-3.04v-1.76h5.21v2.23c-.18.6-.48 1.15-.9 1.67-.43.51-.96.93-1.62 1.25-.65.32-1.39.48-2.21.48-.97 0-1.84-.21-2.6-.64a4.522 4.522 0 0 1-1.78-1.77c-.42-.76-.64-1.62-.64-2.59s.21-1.84.64-2.6c.42-.76 1.02-1.35 1.77-1.78.76-.43 1.62-.64 2.59-.64 1.18 0 2.17.29 2.97.86.81.57 1.34 1.36 1.6 2.37h-2.65ZM2114.51 553.74h-3.67l-.59 1.74h-2.51l3.56-9.83h2.77l3.56 9.83h-2.53l-.59-1.74Zm-.62-1.85-1.22-3.6-1.2 3.6h2.42ZM2134.74 545.65v9.83h-2.39v-5.89l-2.2 5.89h-1.93l-2.21-5.91v5.91h-2.39v-9.83h2.83l2.76 6.8 2.73-6.8h2.81ZM2143.76 547.57v1.99h3.21v1.85h-3.21v2.16h3.63v1.92h-6.02v-9.83h6.02v1.92h-3.63Z"/></g><path class="cls-5" d="M2143.54 960.06h-172.12c-6.1 0-11.06-4.96-11.06-11.06v-10.54c0-6.1 4.96-11.06 11.06-11.06h172.12c6.1 0 11.06 4.96 11.06 11.06V949c0 6.1-4.96 11.06-11.06 11.06Zm-172.12-29.47c-4.34 0-7.87 3.53-7.87 7.87V949c0 4.34 3.53 7.87 7.87 7.87h172.12c4.34 0 7.87-3.53 7.87-7.87v-10.54c0-4.34-3.53-7.87-7.87-7.87h-172.12Z"/><g><path d="m2003.34 938.82-3.4 6.58v3.25h-2.39v-3.25l-3.4-6.58h2.72l1.9 4.12 1.89-4.12h2.69ZM2015.33 946.92h-3.67l-.59 1.74h-2.51l3.56-9.83h2.77l3.56 9.83h-2.53l-.59-1.74Zm-.62-1.85-1.22-3.6-1.2 3.6h2.42ZM2035.56 938.82v9.83h-2.39v-5.89l-2.2 5.89h-1.93l-2.21-5.91v5.91h-2.39v-9.83h2.83l2.76 6.8 2.73-6.8h2.81ZM2048.3 946.92h-3.67l-.59 1.74h-2.51l3.56-9.83h2.77l3.56 9.83h-2.53l-.59-1.74Zm-.62-1.85-1.22-3.6-1.2 3.6h2.42ZM2063.92 941.93c-.18-.33-.43-.58-.76-.75s-.72-.26-1.17-.26c-.77 0-1.4.25-1.86.76-.47.51-.7 1.19-.7 2.04 0 .91.25 1.61.73 2.12.49.51 1.17.76 2.02.76.59 0 1.08-.15 1.49-.45s.7-.73.89-1.29h-3.04v-1.76h5.21v2.23c-.18.6-.48 1.15-.9 1.67-.42.51-.96.93-1.62 1.25s-1.39.48-2.21.48c-.97 0-1.84-.21-2.6-.64a4.522 4.522 0 0 1-1.78-1.77c-.42-.76-.64-1.62-.64-2.59s.21-1.84.64-2.6c.42-.76 1.01-1.35 1.77-1.78s1.62-.64 2.59-.64c1.18 0 2.17.29 2.98.85.81.57 1.34 1.36 1.6 2.37h-2.65ZM2075.32 938.82v5.88c0 .59.14 1.04.43 1.36.29.32.71.48 1.27.48s.99-.16 1.29-.48.45-.77.45-1.36v-5.88h2.39v5.87c0 .88-.19 1.62-.56 2.23a3.6 3.6 0 0 1-1.5 1.37c-.63.31-1.33.46-2.11.46s-1.47-.15-2.08-.46c-.61-.3-1.09-.76-1.45-1.37s-.53-1.36-.53-2.23v-5.87h2.39ZM2087.96 941.13c.42-.76 1.01-1.35 1.76-1.78s1.6-.64 2.55-.64c1.17 0 2.17.31 3 .92.83.62 1.39 1.46 1.67 2.52h-2.63c-.2-.41-.47-.72-.83-.94s-.77-.32-1.22-.32c-.74 0-1.33.26-1.79.77-.46.51-.69 1.2-.69 2.06s.23 1.54.69 2.06c.46.51 1.05.77 1.79.77.46 0 .87-.11 1.22-.32s.64-.53.83-.94h2.63c-.28 1.06-.83 1.9-1.67 2.51-.83.61-1.83.92-3 .92-.95 0-1.8-.21-2.55-.64-.75-.42-1.34-1.01-1.76-1.77s-.63-1.62-.63-2.59.21-1.84.63-2.6ZM2111.81 938.82v9.83h-2.39v-4.05h-3.72v4.05h-2.39v-9.83h2.39v3.85h3.72v-3.85h2.39ZM2120.83 938.82v9.83h-2.39v-9.83h2.39Z"/></g><path class="cls-11" d="m639.45 471.74-17.65 30.58c-1.89 3.27.47 7.35 4.24 7.35h35.31c3.77 0 6.13-4.08 4.24-7.35l-17.65-30.58c-1.89-3.27-6.6-3.27-8.49 0Z"/><path class="cls-11" d="m604.18 471.74-17.65 30.58c-1.89 3.27.47 7.35 4.24 7.35h35.31c3.77 0 6.13-4.08 4.24-7.35l-17.65-30.58c-1.89-3.27-6.6-3.27-8.49 0ZM674.73 471.74l-17.65 30.58c-1.89 3.27.47 7.35 4.24 7.35h35.31c3.77 0 6.13-4.08 4.24-7.35l-17.65-30.58c-1.89-3.27-6.6-3.27-8.49 0Z"/><path class="cls-4" d="m491.28 470.92-17.65 30.58c-1.89 3.27.47 7.35 4.24 7.35h35.31c3.77 0 6.13-4.08 4.24-7.35l-17.65-30.58c-1.89-3.27-6.6-3.27-8.49 0Z"/><path class="cls-13" d="m16.3 794.68-14.86 6.78c-2.4 1.09-1.62 4.68 1.02 4.68h29.72c2.63 0 3.41-3.59 1.02-4.68l-14.86-6.78c-.65-.29-1.39-.29-2.03 0Z"/><path class="cls-13" d="m44.96 794.68-14.86 6.78c-2.4 1.09-1.62 4.68 1.02 4.68h29.72c2.63 0 3.41-3.59 1.02-4.68L47 794.68c-.65-.29-1.39-.29-2.03 0Z"/><path class="cls-13" d="m73.62 794.68-14.86 6.78c-2.4 1.09-1.62 4.68 1.02 4.68H89.5c2.63 0 3.41-3.59 1.02-4.68l-14.86-6.78c-.65-.29-1.39-.29-2.03 0Z"/></g></svg>