<?xml version="1.0" encoding="UTF-8"?><svg id="Layer_1" xmlns="http://www.w3.org/2000/svg" viewBox="0 0 420 500"><defs><style>.cls-1{fill:#ffb554;}.cls-2{fill:#8fb505;}.cls-3{fill:#d94550;}.cls-4{fill:#53822b;}.cls-5{fill:#76b2b4;}</style></defs><path class="cls-5" d="M106.24,284.96l30.15-233.01c1.01-7.81,10.22-11.44,16.29-6.42l249.31,206.13c6.86,5.67,3.45,16.81-5.41,17.66l-279.45,26.89c-6.39,.61-11.7-4.87-10.88-11.24Z"/><path class="cls-1" d="M314.64,292.04l-178.98,17.53c-9.51,.93-12.42,13.4-4.3,18.45l117.62,73.05c4.56,2.83,10.54,1.56,13.56-2.89l61.36-90.59c4.75-7.01-.82-16.39-9.25-15.56Z"/><path class="cls-4" d="M11.62,448.04L3.13,381.87c-1.05-8.2,7.74-14.07,14.91-9.94l64.35,37.03c6.84,3.94,6.64,13.88-.36,17.53l-55.85,29.14c-6.17,3.22-13.66-.69-14.54-7.59Z"/><ellipse class="cls-3" cx="54.9" cy="321.35" rx="49.7" ry="49.77" transform="translate(-211.15 132.94) rotate(-45)"/><path class="cls-2" d="M400.88,165.32l-30.34,23.23c-5.06,3.88-5.25,11.44-.39,15.56l25.13,21.34c6.09,5.17,15.48,1.47,16.4-6.46l5.22-44.57c1.03-8.77-9-14.47-16.01-9.1Z"/></svg>